{
  "accessors": [
    {
      "bufferView": 2,
      "componentType": 5126,
      "count": 65532,
      "max": [
        6178.0,
        16383.0,
        4476.0
      ],
      "min": [
        0.0,
        0.0,
        35.0
      ],
      "type": "VEC3"
    },
    {
      "bufferView": 2,
      "byteOffset": 786384,
      "componentType": 5126,
      "count": 65532,
      "max": [
        1.0,
        0.9999696016311646,
        1.0
      ],
      "min": [
        -0.9999688863754272,
        -0.9999688863754272,
        -0.9999688863754272
      ],
      "type": "VEC3"
    },
    {
      "bufferView": 3,
      "componentType": 5126,
      "count": 65532,
      "max": [
        0.9999247193336487,
        1.0,
        0.999998927116394,
        1.0
      ],
      "min": [
        -0.9999993443489075,
        -0.9999962449073792,
        -0.9999548196792603,
        -1.0
      ],
      "type": "VEC4"
    },
    {
      "bufferView": 1,
      "componentType": 5126,
      "count": 65532,
      "max": [
        0.062485694885253906,
        0.062485694885253906
      ],
      "min": [
        0.0,
        0.0002899169921875
      ],
      "type": "VEC2"
    },
    {
      "bufferView": 1,
      "byteOffset": 524256,
      "componentType": 5126,
      "count": 65532,
      "max": [
        0.062485694885253906,
        0.062485694885253906
      ],
      "min": [
        0.0,
        0.0002899169921875
      ],
      "type": "VEC2"
    },
    {
      "bufferView": 1,
      "byteOffset": 1048512,
      "componentType": 5126,
      "count": 65532,
      "max": [
        0.062485694885253906,
        0.062485694885253906
      ],
      "min": [
        0.0,
        0.0002899169921875
      ],
      "type": "VEC2"
    },
    {
      "bufferView": 1,
      "byteOffset": 1572768,
      "componentType": 5126,
      "count": 65532,
      "max": [
        0.062485694885253906,
        0.062485694885253906
      ],
      "min": [
        0.0,
        0.0002899169921875
      ],
      "type": "VEC2"
    },
    {
      "bufferView": 1,
      "byteOffset": 2097024,
      "componentType": 5126,
      "count": 65532,
      "max": [
        0.062485694885253906,
        0.062485694885253906
      ],
      "min": [
        0.0,
        0.0002899169921875
      ],
      "type": "VEC2"
    },
    {
      "bufferView": 0,
      "componentType": 5125,
      "count": 326049,
      "type": "SCALAR"
    },
    {
      "bufferView": 2,
      "byteOffset": 1572768,
      "componentType": 5126,
      "count": 65532,
      "max": [
        6330.0,
        16321.0,
        3900.0
      ],
      "min": [
        60.0,
        1.0,
        0.0
      ],
      "type": "VEC3"
    },
    {
      "bufferView": 2,
      "byteOffset": 2359152,
      "componentType": 5126,
      "count": 65532,
      "max": [
        0.9999688863754272,
        0.9999688863754272,
        1.0
      ],
      "min": [
        -0.9999688863754272,
        -0.9999688863754272,
        -1.0
      ],
      "type": "VEC3"
    },
    {
      "bufferView": 3,
      "byteOffset": 1048512,
      "componentType": 5126,
      "count": 65532,
      "max": [
        0.999997615814209,
        1.0,
        0.9999904632568359,
        1.0
      ],
      "min": [
        -0.9999687075614929,
        -0.9999838471412659,
        -0.9998944997787476,
        -1.0
      ],
      "type": "VEC4"
    },
    {
      "bufferView": 1,
      "byteOffset": 2621280,
      "componentType": 5126,
      "count": 65532,
      "max": [
        0.06228732690215111,
        0.062470436096191406
      ],
      "min": [
        0.0,
        9.1552734375e-05
      ],
      "type": "VEC2"
    },
    {
      "bufferView": 1,
      "byteOffset": 3145536,
      "componentType": 5126,
      "count": 65532,
      "max": [
        0.06228732690215111,
        0.062470436096191406
      ],
      "min": [
        0.0,
        9.1552734375e-05
      ],
      "type": "VEC2"
    },
    {
      "bufferView": 1,
      "byteOffset": 3669792,
      "componentType": 5126,
      "count": 65532,
      "max": [
        0.06228732690215111,
        0.062470436096191406
      ],
      "min": [
        0.0,
        9.1552734375e-05
      ],
      "type": "VEC2"
    },
    {
      "bufferView": 1,
      "byteOffset": 4194048,
      "componentType": 5126,
      "count": 65532,
      "max": [
        0.06228732690215111,
        0.062470436096191406
      ],
      "min": [
        0.0,
        9.1552734375e-05
      ],
      "type": "VEC2"
    },
    {
      "bufferView": 1,
      "byteOffset": 4718304,
      "componentType": 5126,
      "count": 65532,
      "max": [
        0.06228732690215111,
        0.062470436096191406
      ],
      "min": [
        0.0,
        9.1552734375e-05
      ],
      "type": "VEC2"
    },
    {
      "bufferView": 0,
      "byteOffset": 1304196,
      "componentType": 5125,
      "count": 321408,
      "type": "SCALAR"
    },
    {
      "bufferView": 2,
      "byteOffset": 3145536,
      "componentType": 5126,
      "count": 31434,
      "max": [
        6110.0,
        15446.0,
        3900.0
      ],
      "min": [
        246.0,
        6.0,
        2709.0
      ],
      "type": "VEC3"
    },
    {
      "bufferView": 2,
      "byteOffset": 3522744,
      "componentType": 5126,
      "count": 31434,
      "max": [
        0.9999688863754272,
        0.9994428753852844,
        0.9999688863754272
      ],
      "min": [
        -0.9999375939369202,
        -0.999843955039978,
        -0.9999688863754272
      ],
      "type": "VEC3"
    },
    {
      "bufferView": 3,
      "byteOffset": 2097024,
      "componentType": 5126,
      "count": 31434,
      "max": [
        0.9999905228614807,
        0.9999996423721313,
        0.9996417164802551,
        1.0
      ],
      "min": [
        -0.9999964833259583,
        -0.9998085498809814,
        -0.9999912977218628,
        -1.0
      ],
      "type": "VEC4"
    },
    {
      "bufferView": 1,
      "byteOffset": 5242560,
      "componentType": 5126,
      "count": 31434,
      "max": [
        0.06228732690215111,
        0.062485694885253906
      ],
      "min": [
        1.5259021893143654e-05,
        0.0
      ],
      "type": "VEC2"
    },
    {
      "bufferView": 1,
      "byteOffset": 5494032,
      "componentType": 5126,
      "count": 31434,
      "max": [
        0.06228732690215111,
        0.062485694885253906
      ],
      "min": [
        1.5259021893143654e-05,
        0.0
      ],
      "type": "VEC2"
    },
    {
      "bufferView": 1,
      "byteOffset": 5745504,
      "componentType": 5126,
      "count": 31434,
      "max": [
        0.06228732690215111,
        0.062485694885253906
      ],
      "min": [
        1.5259021893143654e-05,
        0.0
      ],
      "type": "VEC2"
    },
    {
      "bufferView": 1,
      "byteOffset": 5996976,
      "componentType": 5126,
      "count": 31434,
      "max": [
        0.06228732690215111,
        0.062485694885253906
      ],
      "min": [
        1.5259021893143654e-05,
        0.0
      ],
      "type": "VEC2"
    },
    {
      "bufferView": 1,
      "byteOffset": 6248448,
      "componentType": 5126,
      "count": 31434,
      "max": [
        0.06228732690215111,
        0.062485694885253906
      ],
      "min": [
        1.5259021893143654e-05,
        0.0
      ],
      "type": "VEC2"
    },
    {
      "bufferView": 0,
      "byteOffset": 2589828,
      "componentType": 5125,
      "count": 148392,
      "type": "SCALAR"
    }
  ],
  "asset": {
    "extras": {
      "author": "restore50 (https://sketchfab.com/restore50)",
      "license": "CC-BY-4.0 (http://creativecommons.org/licenses/by/4.0/)",
      "source": "https://sketchfab.com/3d-models/monochrome-casual-portrait-b11c8ec71b294069bbc35e91dbca55e7",
      "title": "Monochrome Casual Portrait"
    },
    "generator": "Sketchfab-17.15.0",
    "version": "2.0"
  },
  "bufferViews": [
    {
      "buffer": 0,
      "byteLength": 3183396,
      "name": "floatBufferViews",
      "target": 34963
    },
    {
      "buffer": 0,
      "byteLength": 6499920,
      "byteOffset": 3183396,
      "byteStride": 8,
      "name": "floatBufferViews",
      "target": 34962
    },
    {
      "buffer": 0,
      "byteLength": 3899952,
      "byteOffset": 9683316,
      "byteStride": 12,
      "name": "floatBufferViews",
      "target": 34962
    },
    {
      "buffer": 0,
      "byteLength": 2599968,
      "byteOffset": 13583268,
      "byteStride": 16,
      "name": "floatBufferViews",
      "target": 34962
    }
  ],
  "buffers": [
    {
      "byteLength": 16183236,
      "uri": "scene.bin"
    }
  ],
  "extensionsUsed": [
    "KHR_texture_transform"
  ],
  "images": [
    {
      "uri": "textures/Material_0_baseColor.png"
    },
    {
      "uri": "textures/Material_0_metallicRoughness.png"
    },
    {
      "uri": "textures/Material_0_emissive.png"
    },
    {
      "uri": "textures/Material_0_normal.png"
    }
  ],
  "materials": [
    {
      "doubleSided": true,
      "emissiveFactor": [
        1.0,
        1.0,
        1.0
      ],
      "emissiveTexture": {
        "extensions": {
          "KHR_texture_transform": {
            "offset": [
              5.99615e-05,
              2.09808e-05
            ],
            "scale": [
              15.9282,
              16.003
            ]
          }
        },
        "index": 2,
        "texCoord": 2
      },
      "name": "Material_0",
      "normalTexture": {
        "extensions": {
          "KHR_texture_transform": {
            "offset": [
              5.99615e-05,
              2.09808e-05
            ],
            "scale": [
              15.9282,
              16.003
            ]
          }
        },
        "index": 3,
        "texCoord": 3
      },
      "pbrMetallicRoughness": {
        "baseColorTexture": {
          "extensions": {
            "KHR_texture_transform": {
              "offset": [
                5.99615e-05,
                2.09808e-05
              ],
              "scale": [
                15.9282,
                16.003
              ]
            }
          },
          "index": 0
        },
        "metallicRoughnessTexture": {
          "extensions": {
            "KHR_texture_transform": {
              "offset": [
                5.99615e-05,
                2.09808e-05
              ],
              "scale": [
                15.9282,
                16.003
              ]
            }
          },
          "index": 1,
          "texCoord": 1
        }
      }
    }
  ],
  "meshes": [
    {
      "name": "Object_0",
      "primitives": [
        {
          "attributes": {
            "NORMAL": 1,
            "POSITION": 0,
            "TANGENT": 2,
            "TEXCOORD_0": 3,
            "TEXCOORD_1": 4,
            "TEXCOORD_2": 5,
            "TEXCOORD_3": 6,
            "TEXCOORD_4": 7
          },
          "indices": 8,
          "material": 0,
          "mode": 4
        }
      ]
    },
    {
      "name": "Object_1",
      "primitives": [
        {
          "attributes": {
            "NORMAL": 10,
            "POSITION": 9,
            "TANGENT": 11,
            "TEXCOORD_0": 12,
            "TEXCOORD_1": 13,
            "TEXCOORD_2": 14,
            "TEXCOORD_3": 15,
            "TEXCOORD_4": 16
          },
          "indices": 17,
          "material": 0,
          "mode": 4
        }
      ]
    },
    {
      "name": "Object_2",
      "primitives": [
        {
          "attributes": {
            "NORMAL": 19,
            "POSITION": 18,
            "TANGENT": 20,
            "TEXCOORD_0": 21,
            "TEXCOORD_1": 22,
            "TEXCOORD_2": 23,
            "TEXCOORD_3": 24,
            "TEXCOORD_4": 25
          },
          "indices": 26,
          "material": 0,
          "mode": 4
        }
      ]
    }
  ],
  "nodes": [
    {
      "children": [
        1
      ],
      "matrix": [
        1.0,
        0.0,
        0.0,
        0.0,
        0.0,
        2.220446049250313e-16,
        -1.0,
        0.0,
        0.0,
        1.0,
        2.220446049250313e-16,
        0.0,
        0.0,
        0.0,
        0.0,
        1.0
      ],
      "name": "Sketchfab_model"
    },
    {
      "children": [
        2
      ],
      "name": "root"
    },
    {
      "children": [
        3
      ],
      "matrix": [
        1.0,
        0.0,
        0.0,
        0.0,
        0.0,
        2.220446049250313e-16,
        1.0,
        0.0,
        0.0,
        -1.0,
        2.220446049250313e-16,
        0.0,
        0.0,
        0.0,
        0.0,
        1.0
      ],
      "name": "GLTF_SceneRootNode"
    },
    {
      "children": [
        4
      ],
      "name": "Node_1_1"
    },
    {
      "children": [
        5,
        6,
        7
      ],
      "matrix": [
        0.00011591351358219981,
        0.0,
        0.0,
        0.0,
        0.0,
        0.00011591351358219981,
        0.0,
        0.0,
        0.0,
        0.0,
        0.00011591351358219981,
        0.0,
        -0.3671000003814697,
        -0.9505020976066589,
        -0.2603309750556946,
        1.0
      ],
      "name": "mesh_0_0"
    },
    {
      "mesh": 0,
      "name": "Object_5"
    },
    {
      "mesh": 1,
      "name": "Object_6"
    },
    {
      "mesh": 2,
      "name": "Object_7"
    }
  ],
  "samplers": [
    {
      "magFilter": 9729,
      "minFilter": 9987,
      "wrapS": 10497,
      "wrapT": 10497
    }
  ],
  "scene": 0,
  "scenes": [
    {
      "name": "Sketchfab_Scene",
      "nodes": [
        0
      ]
    }
  ],
  "textures": [
    {
      "sampler": 0,
      "source": 0
    },
    {
      "sampler": 0,
      "source": 1
    },
    {
      "sampler": 0,
      "source": 2
    },
    {
      "sampler": 0,
      "source": 3
    }
  ]
}
