{
  "accessors": [
    {
      "bufferView": 2,
      "componentType": 5126,
      "count": 65532,
      "max": [
        0.31426775455474854,
        0.9483101963996887,
        0.34871575236320496
      ],
      "min": [
        -0.3013351857662201,
        -0.9479833245277405,
        -0.008106806315481663
      ],
      "type": "VEC3"
    },
    {
      "bufferView": 2,
      "byteOffset": 786384,
      "componentType": 5126,
      "count": 65532,
      "max": [
        0.9999690055847168,
        0.9999380111694336,
        1.0
      ],
      "min": [
        -0.9999690055847168,
        -0.9999690055847168,
        -0.9997521042823792
      ],
      "type": "VEC3"
    },
    {
      "bufferView": 3,
      "componentType": 5126,
      "count": 65532,
      "max": [
        0.9999696612358093,
        0.9999992847442627,
        0.9999803900718689,
        1.0
      ],
      "min": [
        -0.9999679327011108,
        -0.9999993443489075,
        -0.9999118447303772,
        -1.0
      ],
      "type": "VEC4"
    },
    {
      "bufferView": 1,
      "componentType": 5126,
      "count": 65532,
      "max": [
        0.9969481825828552,
        0.9999337196350098
      ],
      "min": [
        3.18171369144693e-05,
        2.1636486053466797e-05
      ],
      "type": "VEC2"
    },
    {
      "bufferView": 1,
      "byteOffset": 524256,
      "componentType": 5126,
      "count": 65532,
      "max": [
        0.9969481825828552,
        0.9999337196350098
      ],
      "min": [
        3.18171369144693e-05,
        2.1636486053466797e-05
      ],
      "type": "VEC2"
    },
    {
      "bufferView": 1,
      "byteOffset": 1048512,
      "componentType": 5126,
      "count": 65532,
      "max": [
        0.9969481825828552,
        0.9999337196350098
      ],
      "min": [
        3.18171369144693e-05,
        2.1636486053466797e-05
      ],
      "type": "VEC2"
    },
    {
      "bufferView": 1,
      "byteOffset": 1572768,
      "componentType": 5126,
      "count": 65532,
      "max": [
        0.9969481825828552,
        0.9999337196350098
      ],
      "min": [
        3.18171369144693e-05,
        2.1636486053466797e-05
      ],
      "type": "VEC2"
    },
    {
      "bufferView": 1,
      "byteOffset": 2097024,
      "componentType": 5126,
      "count": 65532,
      "max": [
        0.9969481825828552,
        0.9999337196350098
      ],
      "min": [
        3.18171369144693e-05,
        2.1636486053466797e-05
      ],
      "type": "VEC2"
    },
    {
      "bufferView": 0,
      "componentType": 5125,
      "count": 327873,
      "type": "SCALAR"
    },
    {
      "bufferView": 2,
      "byteOffset": 1572768,
      "componentType": 5126,
      "count": 65532,
      "max": [
        0.3146154284477234,
        0.9478466510772705,
        0.23039297759532928
      ],
      "min": [
        -0.3151260018348694,
        -0.9503011107444763,
        -0.3495161235332489
      ],
      "type": "VEC3"
    },
    {
      "bufferView": 2,
      "byteOffset": 2359152,
      "componentType": 5126,
      "count": 65532,
      "max": [
        0.9999690055847168,
        0.9999690055847168,
        0.9999380111694336
      ],
      "min": [
        -1.0,
        -1.0,
        -1.0
      ],
      "type": "VEC3"
    },
    {
      "bufferView": 3,
      "byteOffset": 1048512,
      "componentType": 5126,
      "count": 65532,
      "max": [
        0.9999688267707825,
        0.9999926686286926,
        0.999984860420227,
        1.0
      ],
      "min": [
        -0.999967634677887,
        -1.0,
        -0.9999274611473083,
        -1.0
      ],
      "type": "VEC4"
    },
    {
      "bufferView": 1,
      "byteOffset": 2621280,
      "componentType": 5126,
      "count": 65532,
      "max": [
        0.9984109997749329,
        0.9999337196350098
      ],
      "min": [
        3.18171369144693e-05,
        0.005393569823354483
      ],
      "type": "VEC2"
    },
    {
      "bufferView": 1,
      "byteOffset": 3145536,
      "componentType": 5126,
      "count": 65532,
      "max": [
        0.9984109997749329,
        0.9999337196350098
      ],
      "min": [
        3.18171369144693e-05,
        0.005393569823354483
      ],
      "type": "VEC2"
    },
    {
      "bufferView": 1,
      "byteOffset": 3669792,
      "componentType": 5126,
      "count": 65532,
      "max": [
        0.9984109997749329,
        0.9999337196350098
      ],
      "min": [
        3.18171369144693e-05,
        0.005393569823354483
      ],
      "type": "VEC2"
    },
    {
      "bufferView": 1,
      "byteOffset": 4194048,
      "componentType": 5126,
      "count": 65532,
      "max": [
        0.9984109997749329,
        0.9999337196350098
      ],
      "min": [
        3.18171369144693e-05,
        0.005393569823354483
      ],
      "type": "VEC2"
    },
    {
      "bufferView": 1,
      "byteOffset": 4718304,
      "componentType": 5126,
      "count": 65532,
      "max": [
        0.9984109997749329,
        0.9999337196350098
      ],
      "min": [
        3.18171369144693e-05,
        0.005393569823354483
      ],
      "type": "VEC2"
    },
    {
      "bufferView": 0,
      "byteOffset": 1311492,
      "componentType": 5125,
      "count": 333516,
      "type": "SCALAR"
    },
    {
      "bufferView": 2,
      "byteOffset": 3145536,
      "componentType": 5126,
      "count": 8028,
      "max": [
        0.3146154284477234,
        0.8719392418861389,
        0.18241488933563232
      ],
      "min": [
        -0.31419888138771057,
        -0.949026346206665,
        0.050069525837898254
      ],
      "type": "VEC3"
    },
    {
      "bufferView": 2,
      "byteOffset": 3241872,
      "componentType": 5126,
      "count": 8028,
      "max": [
        0.9999690055847168,
        0.9936055541038513,
        0.9997212290763855
      ],
      "min": [
        -0.9996901154518127,
        -0.9998451471328735,
        -0.9988858699798584
      ],
      "type": "VEC3"
    },
    {
      "bufferView": 3,
      "byteOffset": 2097024,
      "componentType": 5126,
      "count": 8028,
      "max": [
        0.9984897375106812,
        0.9998510479927063,
        0.9999639987945557,
        1.0
      ],
      "min": [
        -0.9991866946220398,
        -0.9993516206741333,
        -0.9999964833259583,
        -1.0
      ],
      "type": "VEC4"
    },
    {
      "bufferView": 1,
      "byteOffset": 5242560,
      "componentType": 5126,
      "count": 8028,
      "max": [
        0.9874398112297058,
        0.999201238155365
      ],
      "min": [
        0.0005194260156713426,
        0.0014867092249915004
      ],
      "type": "VEC2"
    },
    {
      "bufferView": 1,
      "byteOffset": 5306784,
      "componentType": 5126,
      "count": 8028,
      "max": [
        0.9874398112297058,
        0.999201238155365
      ],
      "min": [
        0.0005194260156713426,
        0.0014867092249915004
      ],
      "type": "VEC2"
    },
    {
      "bufferView": 1,
      "byteOffset": 5371008,
      "componentType": 5126,
      "count": 8028,
      "max": [
        0.9874398112297058,
        0.999201238155365
      ],
      "min": [
        0.0005194260156713426,
        0.0014867092249915004
      ],
      "type": "VEC2"
    },
    {
      "bufferView": 1,
      "byteOffset": 5435232,
      "componentType": 5126,
      "count": 8028,
      "max": [
        0.9874398112297058,
        0.999201238155365
      ],
      "min": [
        0.0005194260156713426,
        0.0014867092249915004
      ],
      "type": "VEC2"
    },
    {
      "bufferView": 1,
      "byteOffset": 5499456,
      "componentType": 5126,
      "count": 8028,
      "max": [
        0.9874398112297058,
        0.999201238155365
      ],
      "min": [
        0.0005194260156713426,
        0.0014867092249915004
      ],
      "type": "VEC2"
    },
    {
      "bufferView": 0,
      "byteOffset": 2645556,
      "componentType": 5125,
      "count": 36156,
      "type": "SCALAR"
    }
  ],
  "asset": {
    "extras": {
      "author": "restore50 (https://sketchfab.com/restore50)",
      "license": "CC-BY-4.0 (http://creativecommons.org/licenses/by/4.0/)",
      "source": "https://sketchfab.com/3d-models/executive-in-a-navy-suit-7a6d2ee920b74a048fb2a21fac8a1c77",
      "title": "Executive in a Navy Suit"
    },
    "generator": "Sketchfab-17.8.0",
    "version": "2.0"
  },
  "bufferViews": [
    {
      "buffer": 0,
      "byteLength": 2790180,
      "name": "floatBufferViews",
      "target": 34963
    },
    {
      "buffer": 0,
      "byteLength": 5563680,
      "byteOffset": 2790180,
      "byteStride": 8,
      "name": "floatBufferViews",
      "target": 34962
    },
    {
      "buffer": 0,
      "byteLength": 3338208,
      "byteOffset": 8353860,
      "byteStride": 12,
      "name": "floatBufferViews",
      "target": 34962
    },
    {
      "buffer": 0,
      "byteLength": 2225472,
      "byteOffset": 11692068,
      "byteStride": 16,
      "name": "floatBufferViews",
      "target": 34962
    }
  ],
  "buffers": [
    {
      "byteLength": 13917540,
      "uri": "scene.bin"
    }
  ],
  "images": [
    {
      "uri": "textures/material_0_baseColor.png"
    },
    {
      "uri": "textures/material_0_metallicRoughness.png"
    },
    {
      "uri": "textures/material_0_emissive.png"
    },
    {
      "uri": "textures/material_0_normal.png"
    }
  ],
  "materials": [
    {
      "doubleSided": true,
      "emissiveFactor": [
        1.0,
        1.0,
        1.0
      ],
      "emissiveTexture": {
        "index": 2,
        "texCoord": 2
      },
      "name": "material_0",
      "normalTexture": {
        "index": 3,
        "texCoord": 3
      },
      "pbrMetallicRoughness": {
        "baseColorTexture": {
          "index": 0
        },
        "metallicRoughnessTexture": {
          "index": 1,
          "texCoord": 1
        }
      }
    }
  ],
  "meshes": [
    {
      "name": "Object_0",
      "primitives": [
        {
          "attributes": {
            "NORMAL": 1,
            "POSITION": 0,
            "TANGENT": 2,
            "TEXCOORD_0": 3,
            "TEXCOORD_1": 4,
            "TEXCOORD_2": 5,
            "TEXCOORD_3": 6,
            "TEXCOORD_4": 7
          },
          "indices": 8,
          "material": 0,
          "mode": 4
        }
      ]
    },
    {
      "name": "Object_1",
      "primitives": [
        {
          "attributes": {
            "NORMAL": 10,
            "POSITION": 9,
            "TANGENT": 11,
            "TEXCOORD_0": 12,
            "TEXCOORD_1": 13,
            "TEXCOORD_2": 14,
            "TEXCOORD_3": 15,
            "TEXCOORD_4": 16
          },
          "indices": 17,
          "material": 0,
          "mode": 4
        }
      ]
    },
    {
      "name": "Object_2",
      "primitives": [
        {
          "attributes": {
            "NORMAL": 19,
            "POSITION": 18,
            "TANGENT": 20,
            "TEXCOORD_0": 21,
            "TEXCOORD_1": 22,
            "TEXCOORD_2": 23,
            "TEXCOORD_3": 24,
            "TEXCOORD_4": 25
          },
          "indices": 26,
          "material": 0,
          "mode": 4
        }
      ]
    }
  ],
  "nodes": [
    {
      "children": [
        1
      ],
      "matrix": [
        1.0,
        0.0,
        0.0,
        0.0,
        0.0,
        2.220446049250313e-16,
        -1.0,
        0.0,
        0.0,
        1.0,
        2.220446049250313e-16,
        0.0,
        0.0,
        0.0,
        0.0,
        1.0
      ],
      "name": "Sketchfab_model"
    },
    {
      "children": [
        2
      ],
      "name": "root"
    },
    {
      "children": [
        3
      ],
      "matrix": [
        1.0,
        0.0,
        0.0,
        0.0,
        0.0,
        2.220446049250313e-16,
        1.0,
        0.0,
        0.0,
        -1.0,
        2.220446049250313e-16,
        0.0,
        0.0,
        0.0,
        0.0,
        1.0
      ],
      "name": "GLTF_SceneRootNode"
    },
    {
      "children": [
        4
      ],
      "name": "_1"
    },
    {
      "children": [
        5,
        6,
        7
      ],
      "name": "mesh_0_0"
    },
    {
      "mesh": 0,
      "name": "Object_5"
    },
    {
      "mesh": 1,
      "name": "Object_6"
    },
    {
      "mesh": 2,
      "name": "Object_7"
    }
  ],
  "samplers": [
    {
      "magFilter": 9729,
      "minFilter": 9987,
      "wrapS": 10497,
      "wrapT": 10497
    }
  ],
  "scene": 0,
  "scenes": [
    {
      "name": "Sketchfab_Scene",
      "nodes": [
        0
      ]
    }
  ],
  "textures": [
    {
      "sampler": 0,
      "source": 0
    },
    {
      "sampler": 0,
      "source": 1
    },
    {
      "sampler": 0,
      "source": 2
    },
    {
      "sampler": 0,
      "source": 3
    }
  ]
}
