{
  "accessors": [
    {
      "bufferView": 2,
      "componentType": 5126,
      "count": 65532,
      "max": [
        6329.0,
        16378.0,
        3396.0
      ],
      "min": [
        0.0,
        0.0,
        290.0
      ],
      "type": "VEC3"
    },
    {
      "bufferView": 2,
      "byteOffset": 786384,
      "componentType": 5126,
      "count": 65532,
      "max": [
        1.0,
        0.9997214674949646,
        1.0
      ],
      "min": [
        -1.0,
        -0.9999688863754272,
        -0.9999688863754272
      ],
      "type": "VEC3"
    },
    {
      "bufferView": 3,
      "componentType": 5126,
      "count": 65532,
      "max": [
        0.9999997019767761,
        0.9999120831489563,
        0.999998927116394,
        1.0
      ],
      "min": [
        -0.9999907612800598,
        -0.9999905824661255,
        -0.9999441504478455,
        -1.0
      ],
      "type": "VEC4"
    },
    {
      "bufferView": 1,
      "componentType": 5126,
      "count": 65532,
      "max": [
        0.062485694885253906,
        0.062485694885253906
      ],
      "min": [
        0.0,
        0.0
      ],
      "type": "VEC2"
    },
    {
      "bufferView": 1,
      "byteOffset": 524256,
      "componentType": 5126,
      "count": 65532,
      "max": [
        0.062485694885253906,
        0.062485694885253906
      ],
      "min": [
        0.0,
        0.0
      ],
      "type": "VEC2"
    },
    {
      "bufferView": 1,
      "byteOffset": 1048512,
      "componentType": 5126,
      "count": 65532,
      "max": [
        0.062485694885253906,
        0.062485694885253906
      ],
      "min": [
        0.0,
        0.0
      ],
      "type": "VEC2"
    },
    {
      "bufferView": 1,
      "byteOffset": 1572768,
      "componentType": 5126,
      "count": 65532,
      "max": [
        0.062485694885253906,
        0.062485694885253906
      ],
      "min": [
        0.0,
        0.0
      ],
      "type": "VEC2"
    },
    {
      "bufferView": 1,
      "byteOffset": 2097024,
      "componentType": 5126,
      "count": 65532,
      "max": [
        0.062485694885253906,
        0.062485694885253906
      ],
      "min": [
        0.0,
        0.0
      ],
      "type": "VEC2"
    },
    {
      "bufferView": 0,
      "componentType": 5125,
      "count": 320385,
      "type": "SCALAR"
    },
    {
      "bufferView": 2,
      "byteOffset": 1572768,
      "componentType": 5126,
      "count": 61243,
      "max": [
        6329.0,
        16383.0,
        2804.0
      ],
      "min": [
        228.0,
        1.0,
        0.0
      ],
      "type": "VEC3"
    },
    {
      "bufferView": 2,
      "byteOffset": 2307684,
      "componentType": 5126,
      "count": 61243,
      "max": [
        1.0,
        0.999876856803894,
        0.9999688863754272
      ],
      "min": [
        -0.9999688863754272,
        -1.0,
        -0.9999688863754272
      ],
      "type": "VEC3"
    },
    {
      "bufferView": 3,
      "byteOffset": 1048512,
      "componentType": 5126,
      "count": 61243,
      "max": [
        0.9999688863754272,
        0.9999688267707825,
        0.9999743103981018,
        1.0
      ],
      "min": [
        -0.9999566674232483,
        -1.0,
        -0.9999672174453735,
        -1.0
      ],
      "type": "VEC4"
    },
    {
      "bufferView": 1,
      "byteOffset": 2621280,
      "componentType": 5126,
      "count": 61243,
      "max": [
        0.062394142150878906,
        0.062485694885253906
      ],
      "min": [
        0.0,
        9.1552734375e-05
      ],
      "type": "VEC2"
    },
    {
      "bufferView": 1,
      "byteOffset": 3111224,
      "componentType": 5126,
      "count": 61243,
      "max": [
        0.062394142150878906,
        0.062485694885253906
      ],
      "min": [
        0.0,
        9.1552734375e-05
      ],
      "type": "VEC2"
    },
    {
      "bufferView": 1,
      "byteOffset": 3601168,
      "componentType": 5126,
      "count": 61243,
      "max": [
        0.062394142150878906,
        0.062485694885253906
      ],
      "min": [
        0.0,
        9.1552734375e-05
      ],
      "type": "VEC2"
    },
    {
      "bufferView": 1,
      "byteOffset": 4091112,
      "componentType": 5126,
      "count": 61243,
      "max": [
        0.062394142150878906,
        0.062485694885253906
      ],
      "min": [
        0.0,
        9.1552734375e-05
      ],
      "type": "VEC2"
    },
    {
      "bufferView": 1,
      "byteOffset": 4581056,
      "componentType": 5126,
      "count": 61243,
      "max": [
        0.062394142150878906,
        0.062485694885253906
      ],
      "min": [
        0.0,
        9.1552734375e-05
      ],
      "type": "VEC2"
    },
    {
      "bufferView": 0,
      "byteOffset": 1281540,
      "componentType": 5125,
      "count": 288627,
      "type": "SCALAR"
    }
  ],
  "asset": {
    "extras": {
      "author": "restore50 (https://sketchfab.com/restore50)",
      "license": "CC-BY-4.0 (http://creativecommons.org/licenses/by/4.0/)",
      "source": "https://sketchfab.com/3d-models/casual-cropped-hoodie-portrait-774642ea5d0343e98587c27d592c9378",
      "title": "Casual Cropped Hoodie Portrait"
    },
    "generator": "Sketchfab-17.15.0",
    "version": "2.0"
  },
  "bufferViews": [
    {
      "buffer": 0,
      "byteLength": 2436048,
      "name": "floatBufferViews",
      "target": 34963
    },
    {
      "buffer": 0,
      "byteLength": 5071000,
      "byteOffset": 2436048,
      "byteStride": 8,
      "name": "floatBufferViews",
      "target": 34962
    },
    {
      "buffer": 0,
      "byteLength": 3042600,
      "byteOffset": 7507048,
      "byteStride": 12,
      "name": "floatBufferViews",
      "target": 34962
    },
    {
      "buffer": 0,
      "byteLength": 2028400,
      "byteOffset": 10549648,
      "byteStride": 16,
      "name": "floatBufferViews",
      "target": 34962
    }
  ],
  "buffers": [
    {
      "byteLength": 12578048,
      "uri": "scene.bin"
    }
  ],
  "extensionsUsed": [
    "KHR_texture_transform"
  ],
  "images": [
    {
      "uri": "textures/Material_0_baseColor.png"
    },
    {
      "uri": "textures/Material_0_metallicRoughness.png"
    },
    {
      "uri": "textures/Material_0_emissive.png"
    },
    {
      "uri": "textures/Material_0_normal.png"
    }
  ],
  "materials": [
    {
      "doubleSided": true,
      "emissiveFactor": [
        1.0,
        1.0,
        1.0
      ],
      "emissiveTexture": {
        "extensions": {
          "KHR_texture_transform": {
            "offset": [
              4.28985e-05,
              0.00314426
            ],
            "scale": [
              16.0027,
              15.9529
            ]
          }
        },
        "index": 2,
        "texCoord": 2
      },
      "name": "Material_0",
      "normalTexture": {
        "extensions": {
          "KHR_texture_transform": {
            "offset": [
              4.28985e-05,
              0.00314426
            ],
            "scale": [
              16.0027,
              15.9529
            ]
          }
        },
        "index": 3,
        "texCoord": 3
      },
      "pbrMetallicRoughness": {
        "baseColorTexture": {
          "extensions": {
            "KHR_texture_transform": {
              "offset": [
                4.28985e-05,
                0.00314426
              ],
              "scale": [
                16.0027,
                15.9529
              ]
            }
          },
          "index": 0
        },
        "metallicRoughnessTexture": {
          "extensions": {
            "KHR_texture_transform": {
              "offset": [
                4.28985e-05,
                0.00314426
              ],
              "scale": [
                16.0027,
                15.9529
              ]
            }
          },
          "index": 1,
          "texCoord": 1
        }
      }
    }
  ],
  "meshes": [
    {
      "name": "Object_0",
      "primitives": [
        {
          "attributes": {
            "NORMAL": 1,
            "POSITION": 0,
            "TANGENT": 2,
            "TEXCOORD_0": 3,
            "TEXCOORD_1": 4,
            "TEXCOORD_2": 5,
            "TEXCOORD_3": 6,
            "TEXCOORD_4": 7
          },
          "indices": 8,
          "material": 0,
          "mode": 4
        }
      ]
    },
    {
      "name": "Object_1",
      "primitives": [
        {
          "attributes": {
            "NORMAL": 10,
            "POSITION": 9,
            "TANGENT": 11,
            "TEXCOORD_0": 12,
            "TEXCOORD_1": 13,
            "TEXCOORD_2": 14,
            "TEXCOORD_3": 15,
            "TEXCOORD_4": 16
          },
          "indices": 17,
          "material": 0,
          "mode": 4
        }
      ]
    }
  ],
  "nodes": [
    {
      "children": [
        1
      ],
      "matrix": [
        1.0,
        0.0,
        0.0,
        0.0,
        0.0,
        2.220446049250313e-16,
        -1.0,
        0.0,
        0.0,
        1.0,
        2.220446049250313e-16,
        0.0,
        0.0,
        0.0,
        0.0,
        1.0
      ],
      "name": "Sketchfab_model"
    },
    {
      "children": [
        2
      ],
      "name": "root"
    },
    {
      "children": [
        3
      ],
      "matrix": [
        1.0,
        0.0,
        0.0,
        0.0,
        0.0,
        2.220446049250313e-16,
        1.0,
        0.0,
        0.0,
        -1.0,
        2.220446049250313e-16,
        0.0,
        0.0,
        0.0,
        0.0,
        1.0
      ],
      "name": "GLTF_SceneRootNode"
    },
    {
      "children": [
        4
      ],
      "name": "Node_1_1"
    },
    {
      "children": [
        5,
        6
      ],
      "matrix": [
        0.00011585132597247139,
        0.0,
        0.0,
        0.0,
        0.0,
        0.00011585132597247139,
        0.0,
        0.0,
        0.0,
        0.0,
        0.00011585132597247139,
        0.0,
        -0.367453008890152,
        -0.9502921104431152,
        -0.19839495420455933,
        1.0
      ],
      "name": "mesh_0_0"
    },
    {
      "mesh": 0,
      "name": "Object_5"
    },
    {
      "mesh": 1,
      "name": "Object_6"
    }
  ],
  "samplers": [
    {
      "magFilter": 9729,
      "minFilter": 9987,
      "wrapS": 10497,
      "wrapT": 10497
    }
  ],
  "scene": 0,
  "scenes": [
    {
      "name": "Sketchfab_Scene",
      "nodes": [
        0
      ]
    }
  ],
  "textures": [
    {
      "sampler": 0,
      "source": 0
    },
    {
      "sampler": 0,
      "source": 1
    },
    {
      "sampler": 0,
      "source": 2
    },
    {
      "sampler": 0,
      "source": 3
    }
  ]
}
