{
  "accessors": [
    {
      "bufferView": 2,
      "componentType": 5126,
      "count": 65532,
      "max": [
        4864.0,
        16318.0,
        3967.0
      ],
      "min": [
        52.0,
        0.0,
        323.0
      ],
      "type": "VEC3"
    },
    {
      "bufferView": 2,
      "byteOffset": 786384,
      "componentType": 5126,
      "count": 65532,
      "max": [
        0.9999688863754272,
        0.9994725584983826,
        0.9999688863754272
      ],
      "min": [
        -0.999845564365387,
        -1.0,
        -0.9996879696846008
      ],
      "type": "VEC3"
    },
    {
      "bufferView": 3,
      "componentType": 5126,
      "count": 65532,
      "max": [
        0.9999884963035583,
        0.9999988079071045,
        0.9999988079071045,
        1.0
      ],
      "min": [
        -0.9999696612358093,
        -0.9999964833259583,
        -0.999990701675415,
        -1.0
      ],
      "type": "VEC4"
    },
    {
      "bufferView": 1,
      "componentType": 5126,
      "count": 65532,
      "max": [
        0.062485694885253906,
        0.062485694885253906
      ],
      "min": [
        0.0,
        0.0001068115234375
      ],
      "type": "VEC2"
    },
    {
      "bufferView": 1,
      "byteOffset": 524256,
      "componentType": 5126,
      "count": 65532,
      "max": [
        0.062485694885253906,
        0.062485694885253906
      ],
      "min": [
        0.0,
        0.0001068115234375
      ],
      "type": "VEC2"
    },
    {
      "bufferView": 1,
      "byteOffset": 1048512,
      "componentType": 5126,
      "count": 65532,
      "max": [
        0.062485694885253906,
        0.062485694885253906
      ],
      "min": [
        0.0,
        0.0001068115234375
      ],
      "type": "VEC2"
    },
    {
      "bufferView": 1,
      "byteOffset": 1572768,
      "componentType": 5126,
      "count": 65532,
      "max": [
        0.062485694885253906,
        0.062485694885253906
      ],
      "min": [
        0.0,
        0.0001068115234375
      ],
      "type": "VEC2"
    },
    {
      "bufferView": 1,
      "byteOffset": 2097024,
      "componentType": 5126,
      "count": 65532,
      "max": [
        0.062485694885253906,
        0.062485694885253906
      ],
      "min": [
        0.0,
        0.0001068115234375
      ],
      "type": "VEC2"
    },
    {
      "bufferView": 0,
      "componentType": 5125,
      "count": 318345,
      "type": "SCALAR"
    },
    {
      "bufferView": 2,
      "byteOffset": 1572768,
      "componentType": 5126,
      "count": 64361,
      "max": [
        4864.0,
        16383.0,
        2969.0
      ],
      "min": [
        0.0,
        0.0,
        0.0
      ],
      "type": "VEC3"
    },
    {
      "bufferView": 2,
      "byteOffset": 2345100,
      "componentType": 5126,
      "count": 64361,
      "max": [
        0.9999688863754272,
        0.9999688863754272,
        0.9999383687973022
      ],
      "min": [
        -0.9999688863754272,
        -1.0,
        -1.0
      ],
      "type": "VEC3"
    },
    {
      "bufferView": 3,
      "byteOffset": 1048512,
      "componentType": 5126,
      "count": 64361,
      "max": [
        0.9999573826789856,
        0.999993622303009,
        0.9999951720237732,
        1.0
      ],
      "min": [
        -0.9999969005584717,
        -1.0,
        -0.9999606609344482,
        -1.0
      ],
      "type": "VEC4"
    },
    {
      "bufferView": 1,
      "byteOffset": 2621280,
      "componentType": 5126,
      "count": 64361,
      "max": [
        0.06208895891904831,
        0.062485694885253906
      ],
      "min": [
        0.0,
        0.0
      ],
      "type": "VEC2"
    },
    {
      "bufferView": 1,
      "byteOffset": 3136168,
      "componentType": 5126,
      "count": 64361,
      "max": [
        0.06208895891904831,
        0.062485694885253906
      ],
      "min": [
        0.0,
        0.0
      ],
      "type": "VEC2"
    },
    {
      "bufferView": 1,
      "byteOffset": 3651056,
      "componentType": 5126,
      "count": 64361,
      "max": [
        0.06208895891904831,
        0.062485694885253906
      ],
      "min": [
        0.0,
        0.0
      ],
      "type": "VEC2"
    },
    {
      "bufferView": 1,
      "byteOffset": 4165944,
      "componentType": 5126,
      "count": 64361,
      "max": [
        0.06208895891904831,
        0.062485694885253906
      ],
      "min": [
        0.0,
        0.0
      ],
      "type": "VEC2"
    },
    {
      "bufferView": 1,
      "byteOffset": 4680832,
      "componentType": 5126,
      "count": 64361,
      "max": [
        0.06208895891904831,
        0.062485694885253906
      ],
      "min": [
        0.0,
        0.0
      ],
      "type": "VEC2"
    },
    {
      "bufferView": 0,
      "byteOffset": 1273380,
      "componentType": 5125,
      "count": 303084,
      "type": "SCALAR"
    }
  ],
  "asset": {
    "extras": {
      "author": "restore50 (https://sketchfab.com/restore50)",
      "license": "CC-BY-4.0 (http://creativecommons.org/licenses/by/4.0/)",
      "source": "https://sketchfab.com/3d-models/navy-minimalist-gentleman-59f2ca373ca24cf3a1e3149df6aa7d4e",
      "title": "Navy Minimalist Gentleman"
    },
    "generator": "Sketchfab-17.17.0",
    "version": "2.0"
  },
  "bufferViews": [
    {
      "buffer": 0,
      "byteLength": 2485716,
      "name": "floatBufferViews",
      "target": 34963
    },
    {
      "buffer": 0,
      "byteLength": 5195720,
      "byteOffset": 2485716,
      "byteStride": 8,
      "name": "floatBufferViews",
      "target": 34962
    },
    {
      "buffer": 0,
      "byteLength": 3117432,
      "byteOffset": 7681436,
      "byteStride": 12,
      "name": "floatBufferViews",
      "target": 34962
    },
    {
      "buffer": 0,
      "byteLength": 2078288,
      "byteOffset": 10798868,
      "byteStride": 16,
      "name": "floatBufferViews",
      "target": 34962
    }
  ],
  "buffers": [
    {
      "byteLength": 12877156,
      "uri": "scene.bin"
    }
  ],
  "extensionsUsed": [
    "KHR_texture_transform"
  ],
  "images": [
    {
      "uri": "textures/Material_0_baseColor.png"
    },
    {
      "uri": "textures/Material_0_metallicRoughness.png"
    },
    {
      "uri": "textures/Material_0_emissive.png"
    },
    {
      "uri": "textures/Material_0_normal.png"
    }
  ],
  "materials": [
    {
      "doubleSided": true,
      "emissiveFactor": [
        1.0,
        1.0,
        1.0
      ],
      "emissiveTexture": {
        "extensions": {
          "KHR_texture_transform": {
            "offset": [
              2.10714e-05,
              2.09808e-05
            ],
            "scale": [
              15.9775,
              16.003
            ]
          }
        },
        "index": 2,
        "texCoord": 2
      },
      "name": "Material_0",
      "normalTexture": {
        "extensions": {
          "KHR_texture_transform": {
            "offset": [
              2.10714e-05,
              2.09808e-05
            ],
            "scale": [
              15.9775,
              16.003
            ]
          }
        },
        "index": 3,
        "texCoord": 3
      },
      "pbrMetallicRoughness": {
        "baseColorTexture": {
          "extensions": {
            "KHR_texture_transform": {
              "offset": [
                2.10714e-05,
                2.09808e-05
              ],
              "scale": [
                15.9775,
                16.003
              ]
            }
          },
          "index": 0
        },
        "metallicRoughnessTexture": {
          "extensions": {
            "KHR_texture_transform": {
              "offset": [
                2.10714e-05,
                2.09808e-05
              ],
              "scale": [
                15.9775,
                16.003
              ]
            }
          },
          "index": 1,
          "texCoord": 1
        }
      }
    }
  ],
  "meshes": [
    {
      "name": "Object_0",
      "primitives": [
        {
          "attributes": {
            "NORMAL": 1,
            "POSITION": 0,
            "TANGENT": 2,
            "TEXCOORD_0": 3,
            "TEXCOORD_1": 4,
            "TEXCOORD_2": 5,
            "TEXCOORD_3": 6,
            "TEXCOORD_4": 7
          },
          "indices": 8,
          "material": 0,
          "mode": 4
        }
      ]
    },
    {
      "name": "Object_1",
      "primitives": [
        {
          "attributes": {
            "NORMAL": 10,
            "POSITION": 9,
            "TANGENT": 11,
            "TEXCOORD_0": 12,
            "TEXCOORD_1": 13,
            "TEXCOORD_2": 14,
            "TEXCOORD_3": 15,
            "TEXCOORD_4": 16
          },
          "indices": 17,
          "material": 0,
          "mode": 4
        }
      ]
    }
  ],
  "nodes": [
    {
      "children": [
        1
      ],
      "matrix": [
        1.0,
        0.0,
        0.0,
        0.0,
        0.0,
        2.220446049250313e-16,
        -1.0,
        0.0,
        0.0,
        1.0,
        2.220446049250313e-16,
        0.0,
        0.0,
        0.0,
        0.0,
        1.0
      ],
      "name": "Sketchfab_model"
    },
    {
      "children": [
        2
      ],
      "name": "root"
    },
    {
      "children": [
        3
      ],
      "matrix": [
        1.0,
        0.0,
        0.0,
        0.0,
        0.0,
        2.220446049250313e-16,
        1.0,
        0.0,
        0.0,
        -1.0,
        2.220446049250313e-16,
        0.0,
        0.0,
        0.0,
        0.0,
        1.0
      ],
      "name": "GLTF_SceneRootNode"
    },
    {
      "children": [
        4
      ],
      "name": "Node_1_1"
    },
    {
      "children": [
        5,
        6
      ],
      "matrix": [
        0.00011585548054426908,
        0.0,
        0.0,
        0.0,
        0.0,
        0.00011585548054426908,
        0.0,
        0.0,
        0.0,
        0.0,
        0.00011585548054426908,
        0.0,
        -0.28306201100349426,
        -0.9505621194839478,
        -0.23073697090148926,
        1.0
      ],
      "name": "mesh_0_0"
    },
    {
      "mesh": 0,
      "name": "Object_5"
    },
    {
      "mesh": 1,
      "name": "Object_6"
    }
  ],
  "samplers": [
    {
      "magFilter": 9729,
      "minFilter": 9987,
      "wrapS": 10497,
      "wrapT": 10497
    }
  ],
  "scene": 0,
  "scenes": [
    {
      "name": "Sketchfab_Scene",
      "nodes": [
        0
      ]
    }
  ],
  "textures": [
    {
      "sampler": 0,
      "source": 0
    },
    {
      "sampler": 0,
      "source": 1
    },
    {
      "sampler": 0,
      "source": 2
    },
    {
      "sampler": 0,
      "source": 3
    }
  ]
}
