{
  "accessors": [
    {
      "bufferView": 2,
      "componentType": 5126,
      "count": 65532,
      "max": [
        0.3846852481365204,
        0.9238465428352356,
        0.2807448208332062
      ],
      "min": [
        -0.3581743836402893,
        -0.9486604928970337,
        -0.08564294874668121
      ],
      "type": "VEC3"
    },
    {
      "bufferView": 2,
      "byteOffset": 786384,
      "componentType": 5126,
      "count": 65532,
      "max": [
        1.0,
        0.9999690055847168,
        1.0
      ],
      "min": [
        -1.0,
        -1.0,
        -0.9998760223388672
      ],
      "type": "VEC3"
    },
    {
      "bufferView": 3,
      "componentType": 5126,
      "count": 65532,
      "max": [
        1.0,
        0.9999985694885254,
        0.9999631643295288,
        1.0
      ],
      "min": [
        -0.99996417760849,
        -1.0,
        -0.9999687671661377,
        -1.0
      ],
      "type": "VEC4"
    },
    {
      "bufferView": 1,
      "componentType": 5126,
      "count": 65532,
      "max": [
        0.9999726414680481,
        0.9999727606773376
      ],
      "min": [
        5.803368549095467e-05,
        0.0025586136616766453
      ],
      "type": "VEC2"
    },
    {
      "bufferView": 1,
      "byteOffset": 524256,
      "componentType": 5126,
      "count": 65532,
      "max": [
        0.9999726414680481,
        0.9999727606773376
      ],
      "min": [
        5.803368549095467e-05,
        0.0025586136616766453
      ],
      "type": "VEC2"
    },
    {
      "bufferView": 1,
      "byteOffset": 1048512,
      "componentType": 5126,
      "count": 65532,
      "max": [
        0.9999726414680481,
        0.9999727606773376
      ],
      "min": [
        5.803368549095467e-05,
        0.0025586136616766453
      ],
      "type": "VEC2"
    },
    {
      "bufferView": 1,
      "byteOffset": 1572768,
      "componentType": 5126,
      "count": 65532,
      "max": [
        0.9999726414680481,
        0.9999727606773376
      ],
      "min": [
        5.803368549095467e-05,
        0.0025586136616766453
      ],
      "type": "VEC2"
    },
    {
      "bufferView": 1,
      "byteOffset": 2097024,
      "componentType": 5126,
      "count": 65532,
      "max": [
        0.9999726414680481,
        0.9999727606773376
      ],
      "min": [
        5.803368549095467e-05,
        0.0025586136616766453
      ],
      "type": "VEC2"
    },
    {
      "bufferView": 0,
      "componentType": 5125,
      "count": 327105,
      "type": "SCALAR"
    },
    {
      "bufferView": 2,
      "byteOffset": 1572768,
      "componentType": 5126,
      "count": 65532,
      "max": [
        0.4028829336166382,
        0.9476078152656555,
        0.22047224640846252
      ],
      "min": [
        -0.40129244327545166,
        -0.9490081667900085,
        -0.11207016557455063
      ],
      "type": "VEC3"
    },
    {
      "bufferView": 2,
      "byteOffset": 2359152,
      "componentType": 5126,
      "count": 65532,
      "max": [
        1.0,
        1.0,
        0.9999690055847168
      ],
      "min": [
        -1.0,
        -1.0,
        -1.0
      ],
      "type": "VEC3"
    },
    {
      "bufferView": 3,
      "byteOffset": 1048512,
      "componentType": 5126,
      "count": 65532,
      "max": [
        0.9999995827674866,
        0.9999999403953552,
        0.9999982714653015,
        1.0
      ],
      "min": [
        -0.9999620914459229,
        -0.9999998807907104,
        -0.999969482421875,
        -1.0
      ],
      "type": "VEC4"
    },
    {
      "bufferView": 1,
      "byteOffset": 2621280,
      "componentType": 5126,
      "count": 65532,
      "max": [
        0.9999726414680481,
        0.9999727606773376
      ],
      "min": [
        5.803368549095467e-05,
        0.0010950565338134766
      ],
      "type": "VEC2"
    },
    {
      "bufferView": 1,
      "byteOffset": 3145536,
      "componentType": 5126,
      "count": 65532,
      "max": [
        0.9999726414680481,
        0.9999727606773376
      ],
      "min": [
        5.803368549095467e-05,
        0.0010950565338134766
      ],
      "type": "VEC2"
    },
    {
      "bufferView": 1,
      "byteOffset": 3669792,
      "componentType": 5126,
      "count": 65532,
      "max": [
        0.9999726414680481,
        0.9999727606773376
      ],
      "min": [
        5.803368549095467e-05,
        0.0010950565338134766
      ],
      "type": "VEC2"
    },
    {
      "bufferView": 1,
      "byteOffset": 4194048,
      "componentType": 5126,
      "count": 65532,
      "max": [
        0.9999726414680481,
        0.9999727606773376
      ],
      "min": [
        5.803368549095467e-05,
        0.0010950565338134766
      ],
      "type": "VEC2"
    },
    {
      "bufferView": 1,
      "byteOffset": 4718304,
      "componentType": 5126,
      "count": 65532,
      "max": [
        0.9999726414680481,
        0.9999727606773376
      ],
      "min": [
        5.803368549095467e-05,
        0.0010950565338134766
      ],
      "type": "VEC2"
    },
    {
      "bufferView": 0,
      "byteOffset": 1308420,
      "componentType": 5125,
      "count": 314568,
      "type": "SCALAR"
    },
    {
      "bufferView": 2,
      "byteOffset": 3145536,
      "componentType": 5126,
      "count": 65532,
      "max": [
        0.4024192988872528,
        0.9485350847244263,
        0.209576815366745
      ],
      "min": [
        -0.4046538174152374,
        -0.9503991007804871,
        -0.24988575279712677
      ],
      "type": "VEC3"
    },
    {
      "bufferView": 2,
      "byteOffset": 3931920,
      "componentType": 5126,
      "count": 65532,
      "max": [
        0.9999690055847168,
        0.9999380111694336,
        0.9999690055847168
      ],
      "min": [
        -1.0,
        -1.0,
        -1.0
      ],
      "type": "VEC3"
    },
    {
      "bufferView": 3,
      "byteOffset": 2097024,
      "componentType": 5126,
      "count": 65532,
      "max": [
        1.0,
        0.9999997615814209,
        0.9999663233757019,
        1.0
      ],
      "min": [
        -0.9998171925544739,
        -0.9999992251396179,
        -0.9999831914901733,
        -1.0
      ],
      "type": "VEC4"
    },
    {
      "bufferView": 1,
      "byteOffset": 5242560,
      "componentType": 5126,
      "count": 65532,
      "max": [
        0.9999726414680481,
        0.9997288584709167
      ],
      "min": [
        0.0003022130695171654,
        0.0035343184135854244
      ],
      "type": "VEC2"
    },
    {
      "bufferView": 1,
      "byteOffset": 5766816,
      "componentType": 5126,
      "count": 65532,
      "max": [
        0.9999726414680481,
        0.9997288584709167
      ],
      "min": [
        0.0003022130695171654,
        0.0035343184135854244
      ],
      "type": "VEC2"
    },
    {
      "bufferView": 1,
      "byteOffset": 6291072,
      "componentType": 5126,
      "count": 65532,
      "max": [
        0.9999726414680481,
        0.9997288584709167
      ],
      "min": [
        0.0003022130695171654,
        0.0035343184135854244
      ],
      "type": "VEC2"
    },
    {
      "bufferView": 1,
      "byteOffset": 6815328,
      "componentType": 5126,
      "count": 65532,
      "max": [
        0.9999726414680481,
        0.9997288584709167
      ],
      "min": [
        0.0003022130695171654,
        0.0035343184135854244
      ],
      "type": "VEC2"
    },
    {
      "bufferView": 1,
      "byteOffset": 7339584,
      "componentType": 5126,
      "count": 65532,
      "max": [
        0.9999726414680481,
        0.9997288584709167
      ],
      "min": [
        0.0003022130695171654,
        0.0035343184135854244
      ],
      "type": "VEC2"
    },
    {
      "bufferView": 0,
      "byteOffset": 2566692,
      "componentType": 5125,
      "count": 311043,
      "type": "SCALAR"
    },
    {
      "bufferView": 2,
      "byteOffset": 4718304,
      "componentType": 5126,
      "count": 65532,
      "max": [
        0.39488524198532104,
        0.8347126245498657,
        0.035829491913318634
      ],
      "min": [
        -0.37092435359954834,
        -0.9503991007804871,
        -0.2824561297893524
      ],
      "type": "VEC3"
    },
    {
      "bufferView": 2,
      "byteOffset": 5504688,
      "componentType": 5126,
      "count": 65532,
      "max": [
        0.9999690055847168,
        0.9987314343452454,
        0.9999690055847168
      ],
      "min": [
        -0.9999690055847168,
        -0.9999690055847168,
        -1.0
      ],
      "type": "VEC3"
    },
    {
      "bufferView": 3,
      "byteOffset": 3145536,
      "componentType": 5126,
      "count": 65532,
      "max": [
        0.9999982118606567,
        0.9999998211860657,
        0.9999626278877258,
        1.0
      ],
      "min": [
        -0.9999686479568481,
        -0.9999871253967285,
        -0.9999688863754272,
        -1.0
      ],
      "type": "VEC4"
    },
    {
      "bufferView": 1,
      "byteOffset": 7863840,
      "componentType": 5126,
      "count": 65532,
      "max": [
        0.9997284412384033,
        0.9997288584709167
      ],
      "min": [
        5.803368549095467e-05,
        0.0025586136616766453
      ],
      "type": "VEC2"
    },
    {
      "bufferView": 1,
      "byteOffset": 8388096,
      "componentType": 5126,
      "count": 65532,
      "max": [
        0.9997284412384033,
        0.9997288584709167
      ],
      "min": [
        5.803368549095467e-05,
        0.0025586136616766453
      ],
      "type": "VEC2"
    },
    {
      "bufferView": 1,
      "byteOffset": 8912352,
      "componentType": 5126,
      "count": 65532,
      "max": [
        0.9997284412384033,
        0.9997288584709167
      ],
      "min": [
        5.803368549095467e-05,
        0.0025586136616766453
      ],
      "type": "VEC2"
    },
    {
      "bufferView": 1,
      "byteOffset": 9436608,
      "componentType": 5126,
      "count": 65532,
      "max": [
        0.9997284412384033,
        0.9997288584709167
      ],
      "min": [
        5.803368549095467e-05,
        0.0025586136616766453
      ],
      "type": "VEC2"
    },
    {
      "bufferView": 1,
      "byteOffset": 9960864,
      "componentType": 5126,
      "count": 65532,
      "max": [
        0.9997284412384033,
        0.9997288584709167
      ],
      "min": [
        5.803368549095467e-05,
        0.0025586136616766453
      ],
      "type": "VEC2"
    },
    {
      "bufferView": 0,
      "byteOffset": 3810864,
      "componentType": 5125,
      "count": 318072,
      "type": "SCALAR"
    },
    {
      "bufferView": 2,
      "byteOffset": 6291072,
      "componentType": 5126,
      "count": 33427,
      "max": [
        0.4013761281967163,
        0.930916965007782,
        0.11221340298652649
      ],
      "min": [
        -0.4056969881057739,
        -0.9492400288581848,
        -0.11207016557455063
      ],
      "type": "VEC3"
    },
    {
      "bufferView": 2,
      "byteOffset": 6692196,
      "componentType": 5126,
      "count": 33427,
      "max": [
        0.9999690055847168,
        0.9998451471328735,
        0.9999690055847168
      ],
      "min": [
        -0.9999690055847168,
        -0.9999690055847168,
        -0.9999690055847168
      ],
      "type": "VEC3"
    },
    {
      "bufferView": 3,
      "byteOffset": 4194048,
      "componentType": 5126,
      "count": 33427,
      "max": [
        0.9999945759773254,
        0.9999849796295166,
        0.9999544024467468,
        1.0
      ],
      "min": [
        -0.9998696446418762,
        -0.9999798536300659,
        -0.9999990463256836,
        -1.0
      ],
      "type": "VEC4"
    },
    {
      "bufferView": 1,
      "byteOffset": 10485120,
      "componentType": 5126,
      "count": 33427,
      "max": [
        0.9999726414680481,
        0.9997288584709167
      ],
      "min": [
        0.0003022130695171654,
        0.0025586136616766453
      ],
      "type": "VEC2"
    },
    {
      "bufferView": 1,
      "byteOffset": 10752536,
      "componentType": 5126,
      "count": 33427,
      "max": [
        0.9999726414680481,
        0.9997288584709167
      ],
      "min": [
        0.0003022130695171654,
        0.0025586136616766453
      ],
      "type": "VEC2"
    },
    {
      "bufferView": 1,
      "byteOffset": 11019952,
      "componentType": 5126,
      "count": 33427,
      "max": [
        0.9999726414680481,
        0.9997288584709167
      ],
      "min": [
        0.0003022130695171654,
        0.0025586136616766453
      ],
      "type": "VEC2"
    },
    {
      "bufferView": 1,
      "byteOffset": 11287368,
      "componentType": 5126,
      "count": 33427,
      "max": [
        0.9999726414680481,
        0.9997288584709167
      ],
      "min": [
        0.0003022130695171654,
        0.0025586136616766453
      ],
      "type": "VEC2"
    },
    {
      "bufferView": 1,
      "byteOffset": 11554784,
      "componentType": 5126,
      "count": 33427,
      "max": [
        0.9999726414680481,
        0.9997288584709167
      ],
      "min": [
        0.0003022130695171654,
        0.0025586136616766453
      ],
      "type": "VEC2"
    },
    {
      "bufferView": 0,
      "byteOffset": 5083152,
      "componentType": 5125,
      "count": 149958,
      "type": "SCALAR"
    }
  ],
  "asset": {
    "extras": {
      "author": "iRahulRajput (https://sketchfab.com/rt699448)",
      "license": "CC-BY-4.0 (http://creativecommons.org/licenses/by/4.0/)",
      "source": "https://sketchfab.com/3d-models/midnight-outlaw-shadow-character-3d-model-free-e8b29a6c85164173941569cb1aca6d9f",
      "title": "Midnight Outlaw Shadow Character 3D Model Free"
    },
    "generator": "Sketchfab-17.14.0",
    "version": "2.0"
  },
  "bufferViews": [
    {
      "buffer": 0,
      "byteLength": 5682984,
      "name": "floatBufferViews",
      "target": 34963
    },
    {
      "buffer": 0,
      "byteLength": 11822200,
      "byteOffset": 5682984,
      "byteStride": 8,
      "name": "floatBufferViews",
      "target": 34962
    },
    {
      "buffer": 0,
      "byteLength": 7093320,
      "byteOffset": 17505184,
      "byteStride": 12,
      "name": "floatBufferViews",
      "target": 34962
    },
    {
      "buffer": 0,
      "byteLength": 4728880,
      "byteOffset": 24598504,
      "byteStride": 16,
      "name": "floatBufferViews",
      "target": 34962
    }
  ],
  "buffers": [
    {
      "byteLength": 29327384,
      "uri": "scene.bin"
    }
  ],
  "extensionsUsed": [
    "KHR_materials_specular"
  ],
  "images": [
    {
      "uri": "textures/material_0_baseColor.png"
    },
    {
      "uri": "textures/material_0_metallicRoughness.png"
    },
    {
      "uri": "textures/material_0_emissive.png"
    },
    {
      "uri": "textures/material_0_normal.png"
    }
  ],
  "materials": [
    {
      "doubleSided": true,
      "emissiveFactor": [
        1.0,
        1.0,
        1.0
      ],
      "emissiveTexture": {
        "index": 2,
        "texCoord": 2
      },
      "extensions": {
        "KHR_materials_specular": {
          "specularColorFactor": [
            1.0,
            1.0,
            1.0
          ],
          "specularFactor": 0.1093472919542469
        }
      },
      "name": "material_0",
      "normalTexture": {
        "index": 3,
        "texCoord": 3
      },
      "pbrMetallicRoughness": {
        "baseColorTexture": {
          "index": 0
        },
        "metallicFactor": 0.7650923614719587,
        "metallicRoughnessTexture": {
          "index": 1,
          "texCoord": 1
        }
      }
    }
  ],
  "meshes": [
    {
      "name": "Object_0",
      "primitives": [
        {
          "attributes": {
            "NORMAL": 1,
            "POSITION": 0,
            "TANGENT": 2,
            "TEXCOORD_0": 3,
            "TEXCOORD_1": 4,
            "TEXCOORD_2": 5,
            "TEXCOORD_3": 6,
            "TEXCOORD_4": 7
          },
          "indices": 8,
          "material": 0,
          "mode": 4
        }
      ]
    },
    {
      "name": "Object_1",
      "primitives": [
        {
          "attributes": {
            "NORMAL": 10,
            "POSITION": 9,
            "TANGENT": 11,
            "TEXCOORD_0": 12,
            "TEXCOORD_1": 13,
            "TEXCOORD_2": 14,
            "TEXCOORD_3": 15,
            "TEXCOORD_4": 16
          },
          "indices": 17,
          "material": 0,
          "mode": 4
        }
      ]
    },
    {
      "name": "Object_2",
      "primitives": [
        {
          "attributes": {
            "NORMAL": 19,
            "POSITION": 18,
            "TANGENT": 20,
            "TEXCOORD_0": 21,
            "TEXCOORD_1": 22,
            "TEXCOORD_2": 23,
            "TEXCOORD_3": 24,
            "TEXCOORD_4": 25
          },
          "indices": 26,
          "material": 0,
          "mode": 4
        }
      ]
    },
    {
      "name": "Object_3",
      "primitives": [
        {
          "attributes": {
            "NORMAL": 28,
            "POSITION": 27,
            "TANGENT": 29,
            "TEXCOORD_0": 30,
            "TEXCOORD_1": 31,
            "TEXCOORD_2": 32,
            "TEXCOORD_3": 33,
            "TEXCOORD_4": 34
          },
          "indices": 35,
          "material": 0,
          "mode": 4
        }
      ]
    },
    {
      "name": "Object_4",
      "primitives": [
        {
          "attributes": {
            "NORMAL": 37,
            "POSITION": 36,
            "TANGENT": 38,
            "TEXCOORD_0": 39,
            "TEXCOORD_1": 40,
            "TEXCOORD_2": 41,
            "TEXCOORD_3": 42,
            "TEXCOORD_4": 43
          },
          "indices": 44,
          "material": 0,
          "mode": 4
        }
      ]
    }
  ],
  "nodes": [
    {
      "children": [
        1
      ],
      "matrix": [
        1.0,
        0.0,
        0.0,
        0.0,
        0.0,
        2.220446049250313e-16,
        -1.0,
        0.0,
        0.0,
        1.0,
        2.220446049250313e-16,
        0.0,
        0.0,
        0.0,
        0.0,
        1.0
      ],
      "name": "Sketchfab_model"
    },
    {
      "children": [
        2
      ],
      "name": "root"
    },
    {
      "children": [
        3
      ],
      "matrix": [
        1.0,
        0.0,
        0.0,
        0.0,
        0.0,
        2.220446049250313e-16,
        1.0,
        0.0,
        0.0,
        -1.0,
        2.220446049250313e-16,
        0.0,
        0.0,
        0.0,
        0.0,
        1.0
      ],
      "name": "GLTF_SceneRootNode"
    },
    {
      "children": [
        4
      ],
      "name": "_1"
    },
    {
      "children": [
        5,
        6,
        7,
        8,
        9
      ],
      "name": "mesh_0_0"
    },
    {
      "mesh": 0,
      "name": "Object_5"
    },
    {
      "mesh": 1,
      "name": "Object_6"
    },
    {
      "mesh": 2,
      "name": "Object_7"
    },
    {
      "mesh": 3,
      "name": "Object_8"
    },
    {
      "mesh": 4,
      "name": "Object_9"
    }
  ],
  "samplers": [
    {
      "magFilter": 9729,
      "minFilter": 9987,
      "wrapS": 10497,
      "wrapT": 10497
    }
  ],
  "scene": 0,
  "scenes": [
    {
      "name": "Sketchfab_Scene",
      "nodes": [
        0
      ]
    }
  ],
  "textures": [
    {
      "sampler": 0,
      "source": 0
    },
    {
      "sampler": 0,
      "source": 1
    },
    {
      "sampler": 0,
      "source": 2
    },
    {
      "sampler": 0,
      "source": 3
    }
  ]
}
