{
  "accessors": [
    {
      "bufferView": 2,
      "componentType": 5126,
      "count": 30254,
      "max": [
        0.35670000314712524,
        0.1670999974012375,
        1.78410005569458
      ],
      "min": [
        -0.2549000084400177,
        -0.23929999768733978,
        0.004000000189989805
      ],
      "type": "VEC3"
    },
    {
      "bufferView": 2,
      "byteOffset": 363048,
      "componentType": 5126,
      "count": 30254,
      "max": [
        0.9999189376831055,
        0.9999865293502808,
        0.9998343586921692
      ],
      "min": [
        -0.9999978542327881,
        -0.9999616146087646,
        -0.9999969005584717
      ],
      "type": "VEC3"
    },
    {
      "bufferView": 3,
      "componentType": 5126,
      "count": 30254,
      "max": [
        0.9998809695243835,
        0.9999036192893982,
        0.9999786019325256,
        1.0
      ],
      "min": [
        -0.999963104724884,
        -0.9997833967208862,
        -0.9999870657920837,
        -1.0
      ],
      "type": "VEC4"
    },
    {
      "bufferView": 1,
      "componentType": 5126,
      "count": 30254,
      "max": [
        1.0,
        0.9990000128746033
      ],
      "min": [
        0.0,
        9.999999747378752e-05
      ],
      "type": "VEC2"
    },
    {
      "bufferView": 0,
      "componentType": 5125,
      "count": 150000,
      "type": "SCALAR"
    }
  ],
  "asset": {
    "extras": {
      "author": "kanistra (https://sketchfab.com/kanistra)",
      "license": "CC-BY-4.0 (http://creativecommons.org/licenses/by/4.0/)",
      "source": "https://sketchfab.com/3d-models/young-guy-keeps-his-hands-in-pockets-71899091b2494b13b6c773ab1063aff2",
      "title": "Young guy keeps his hands in pockets"
    },
    "generator": "Sketchfab-16.29.0",
    "version": "2.0"
  },
  "bufferViews": [
    {
      "buffer": 0,
      "byteLength": 600000,
      "name": "floatBufferViews",
      "target": 34963
    },
    {
      "buffer": 0,
      "byteLength": 242032,
      "byteOffset": 600000,
      "byteStride": 8,
      "name": "floatBufferViews",
      "target": 34962
    },
    {
      "buffer": 0,
      "byteLength": 726096,
      "byteOffset": 842032,
      "byteStride": 12,
      "name": "floatBufferViews",
      "target": 34962
    },
    {
      "buffer": 0,
      "byteLength": 484064,
      "byteOffset": 1568128,
      "byteStride": 16,
      "name": "floatBufferViews",
      "target": 34962
    }
  ],
  "buffers": [
    {
      "byteLength": 2052192,
      "uri": "scene.bin"
    }
  ],
  "extensionsUsed": [
    "KHR_materials_specular"
  ],
  "images": [
    {
      "uri": "textures/alexey_MNND68_alexey_MNND68_baseColor.png"
    },
    {
      "uri": "textures/alexey_MNND68_alexey_MNND68_metallicRoughness.png"
    },
    {
      "uri": "textures/alexey_MNND68_alexey_MNND68_normal.png"
    }
  ],
  "materials": [
    {
      "doubleSided": true,
      "extensions": {
        "KHR_materials_specular": {
          "specularColorFactor": [
            1.0,
            1.0,
            1.0
          ],
          "specularFactor": 0.08558068233899875
        }
      },
      "name": "alexey_MNND68_alexey_MNND68",
      "normalTexture": {
        "index": 2
      },
      "occlusionTexture": {
        "index": 1
      },
      "pbrMetallicRoughness": {
        "baseColorTexture": {
          "index": 0
        },
        "metallicFactor": 0.0,
        "metallicRoughnessTexture": {
          "index": 1
        },
        "roughnessFactor": 0.9606308154195398
      }
    }
  ],
  "meshes": [
    {
      "name": "Object_0",
      "primitives": [
        {
          "attributes": {
            "NORMAL": 1,
            "POSITION": 0,
            "TANGENT": 2,
            "TEXCOORD_0": 3
          },
          "indices": 4,
          "material": 0,
          "mode": 4
        }
      ]
    }
  ],
  "nodes": [
    {
      "children": [
        1
      ],
      "matrix": [
        -1.0,
        -4.504636734104249e-32,
        2.832769343193999e-16,
        0.0,
        2.832769343193999e-16,
        -6.123234262925839e-17,
        1.0,
        0.0,
        -2.770065955897755e-32,
        1.0,
        6.123234262925839e-17,
        0.0,
        0.0,
        0.0,
        0.0,
        1.0
      ],
      "name": "Sketchfab_model"
    },
    {
      "children": [
        2
      ],
      "name": "alexey_MNND68.obj.cleaner.materialmerger.gles"
    },
    {
      "mesh": 0,
      "name": "Object_2"
    }
  ],
  "samplers": [
    {
      "magFilter": 9729,
      "minFilter": 9987,
      "wrapS": 10497,
      "wrapT": 10497
    }
  ],
  "scene": 0,
  "scenes": [
    {
      "name": "Sketchfab_Scene",
      "nodes": [
        0
      ]
    }
  ],
  "textures": [
    {
      "sampler": 0,
      "source": 0
    },
    {
      "sampler": 0,
      "source": 1
    },
    {
      "sampler": 0,
      "source": 2
    }
  ]
}
