{
  "accessors": [
    {
      "bufferView": 2,
      "componentType": 5126,
      "count": 65532,
      "max": [
        0.4221656620502472,
        0.9455263614654541,
        0.19547532498836517
      ],
      "min": [
        -0.42630699276924133,
        -0.9503231644630432,
        -0.17833946645259857
      ],
      "type": "VEC3"
    },
    {
      "bufferView": 2,
      "byteOffset": 786384,
      "componentType": 5126,
      "count": 65532,
      "max": [
        0.9999690055847168,
        0.9999690055847168,
        0.9999690055847168
      ],
      "min": [
        -0.9999690055847168,
        -0.9999690055847168,
        -0.9999690055847168
      ],
      "type": "VEC3"
    },
    {
      "bufferView": 3,
      "componentType": 5126,
      "count": 65532,
      "max": [
        1.0,
        1.0,
        0.9999996423721313,
        1.0
      ],
      "min": [
        -0.9999402761459351,
        -0.9999911785125732,
        -0.9998819828033447,
        -1.0
      ],
      "type": "VEC4"
    },
    {
      "bufferView": 1,
      "componentType": 5126,
      "count": 65532,
      "max": [
        0.9873342514038086,
        0.9999716877937317
      ],
      "min": [
        4.079667996848002e-05,
        0.0031976853497326374
      ],
      "type": "VEC2"
    },
    {
      "bufferView": 1,
      "byteOffset": 524256,
      "componentType": 5126,
      "count": 65532,
      "max": [
        0.9873342514038086,
        0.9999716877937317
      ],
      "min": [
        4.079667996848002e-05,
        0.0031976853497326374
      ],
      "type": "VEC2"
    },
    {
      "bufferView": 1,
      "byteOffset": 1048512,
      "componentType": 5126,
      "count": 65532,
      "max": [
        0.9873342514038086,
        0.9999716877937317
      ],
      "min": [
        4.079667996848002e-05,
        0.0031976853497326374
      ],
      "type": "VEC2"
    },
    {
      "bufferView": 1,
      "byteOffset": 1572768,
      "componentType": 5126,
      "count": 65532,
      "max": [
        0.9873342514038086,
        0.9999716877937317
      ],
      "min": [
        4.079667996848002e-05,
        0.0031976853497326374
      ],
      "type": "VEC2"
    },
    {
      "bufferView": 1,
      "byteOffset": 2097024,
      "componentType": 5126,
      "count": 65532,
      "max": [
        0.9873342514038086,
        0.9999716877937317
      ],
      "min": [
        4.079667996848002e-05,
        0.0031976853497326374
      ],
      "type": "VEC2"
    },
    {
      "bufferView": 0,
      "componentType": 5125,
      "count": 328056,
      "type": "SCALAR"
    },
    {
      "bufferView": 2,
      "byteOffset": 1572768,
      "componentType": 5126,
      "count": 65532,
      "max": [
        0.4245997965335846,
        0.7343354821205139,
        0.08165017515420914
      ],
      "min": [
        -0.42630699276924133,
        -0.9504390954971313,
        -0.19723305106163025
      ],
      "type": "VEC3"
    },
    {
      "bufferView": 2,
      "byteOffset": 2359152,
      "componentType": 5126,
      "count": 65532,
      "max": [
        1.0,
        0.9965152740478516,
        0.9997212290763855
      ],
      "min": [
        -0.9999690055847168,
        -1.0,
        -1.0
      ],
      "type": "VEC3"
    },
    {
      "bufferView": 3,
      "byteOffset": 1048512,
      "componentType": 5126,
      "count": 65532,
      "max": [
        0.9999839067459106,
        1.0,
        0.999988853931427,
        1.0
      ],
      "min": [
        -0.9999979138374329,
        -1.0,
        -0.9999980330467224,
        -1.0
      ],
      "type": "VEC4"
    },
    {
      "bufferView": 1,
      "byteOffset": 2621280,
      "componentType": 5126,
      "count": 65532,
      "max": [
        0.9968274235725403,
        0.9999716877937317
      ],
      "min": [
        4.079667996848002e-05,
        2.3245811462402344e-05
      ],
      "type": "VEC2"
    },
    {
      "bufferView": 1,
      "byteOffset": 3145536,
      "componentType": 5126,
      "count": 65532,
      "max": [
        0.9968274235725403,
        0.9999716877937317
      ],
      "min": [
        4.079667996848002e-05,
        2.3245811462402344e-05
      ],
      "type": "VEC2"
    },
    {
      "bufferView": 1,
      "byteOffset": 3669792,
      "componentType": 5126,
      "count": 65532,
      "max": [
        0.9968274235725403,
        0.9999716877937317
      ],
      "min": [
        4.079667996848002e-05,
        2.3245811462402344e-05
      ],
      "type": "VEC2"
    },
    {
      "bufferView": 1,
      "byteOffset": 4194048,
      "componentType": 5126,
      "count": 65532,
      "max": [
        0.9968274235725403,
        0.9999716877937317
      ],
      "min": [
        4.079667996848002e-05,
        2.3245811462402344e-05
      ],
      "type": "VEC2"
    },
    {
      "bufferView": 1,
      "byteOffset": 4718304,
      "componentType": 5126,
      "count": 65532,
      "max": [
        0.9968274235725403,
        0.9999716877937317
      ],
      "min": [
        4.079667996848002e-05,
        2.3245811462402344e-05
      ],
      "type": "VEC2"
    },
    {
      "bufferView": 0,
      "byteOffset": 1312224,
      "componentType": 5125,
      "count": 331728,
      "type": "SCALAR"
    },
    {
      "bufferView": 2,
      "byteOffset": 3145536,
      "componentType": 5126,
      "count": 60879,
      "max": [
        0.4096471965312958,
        0.9485400319099426,
        0.1603541225194931
      ],
      "min": [
        -0.41031119227409363,
        -0.9497436285018921,
        -0.09105806052684784
      ],
      "type": "VEC3"
    },
    {
      "bufferView": 2,
      "byteOffset": 3876084,
      "componentType": 5126,
      "count": 60879,
      "max": [
        0.9999690055847168,
        0.9999690055847168,
        1.0
      ],
      "min": [
        -0.9999690055847168,
        -0.9999690055847168,
        -0.9999380111694336
      ],
      "type": "VEC3"
    },
    {
      "bufferView": 3,
      "byteOffset": 2097024,
      "componentType": 5126,
      "count": 60879,
      "max": [
        1.0,
        0.9999879598617554,
        0.9999906420707703,
        1.0
      ],
      "min": [
        -1.0,
        -0.9999684691429138,
        -0.999997615814209,
        -1.0
      ],
      "type": "VEC4"
    },
    {
      "bufferView": 1,
      "byteOffset": 5242560,
      "componentType": 5126,
      "count": 60879,
      "max": [
        0.9936630129814148,
        0.9999716877937317
      ],
      "min": [
        4.079667996848002e-05,
        0.0014883717522025108
      ],
      "type": "VEC2"
    },
    {
      "bufferView": 1,
      "byteOffset": 5729592,
      "componentType": 5126,
      "count": 60879,
      "max": [
        0.9936630129814148,
        0.9999716877937317
      ],
      "min": [
        4.079667996848002e-05,
        0.0014883717522025108
      ],
      "type": "VEC2"
    },
    {
      "bufferView": 1,
      "byteOffset": 6216624,
      "componentType": 5126,
      "count": 60879,
      "max": [
        0.9936630129814148,
        0.9999716877937317
      ],
      "min": [
        4.079667996848002e-05,
        0.0014883717522025108
      ],
      "type": "VEC2"
    },
    {
      "bufferView": 1,
      "byteOffset": 6703656,
      "componentType": 5126,
      "count": 60879,
      "max": [
        0.9936630129814148,
        0.9999716877937317
      ],
      "min": [
        4.079667996848002e-05,
        0.0014883717522025108
      ],
      "type": "VEC2"
    },
    {
      "bufferView": 1,
      "byteOffset": 7190688,
      "componentType": 5126,
      "count": 60879,
      "max": [
        0.9936630129814148,
        0.9999716877937317
      ],
      "min": [
        4.079667996848002e-05,
        0.0014883717522025108
      ],
      "type": "VEC2"
    },
    {
      "bufferView": 0,
      "byteOffset": 2639136,
      "componentType": 5125,
      "count": 300324,
      "type": "SCALAR"
    }
  ],
  "asset": {
    "extras": {
      "author": "restore50 (https://sketchfab.com/restore50)",
      "license": "CC-BY-4.0 (http://creativecommons.org/licenses/by/4.0/)",
      "source": "https://sketchfab.com/3d-models/confident-executive-in-a-navy-suit-240a35875b824a1c9b5a60fa0a56680d",
      "title": "Confident Executive in a Navy Suit"
    },
    "generator": "Sketchfab-17.14.0",
    "version": "2.0"
  },
  "bufferViews": [
    {
      "buffer": 0,
      "byteLength": 3840432,
      "name": "floatBufferViews",
      "target": 34963
    },
    {
      "buffer": 0,
      "byteLength": 7677720,
      "byteOffset": 3840432,
      "byteStride": 8,
      "name": "floatBufferViews",
      "target": 34962
    },
    {
      "buffer": 0,
      "byteLength": 4606632,
      "byteOffset": 11518152,
      "byteStride": 12,
      "name": "floatBufferViews",
      "target": 34962
    },
    {
      "buffer": 0,
      "byteLength": 3071088,
      "byteOffset": 16124784,
      "byteStride": 16,
      "name": "floatBufferViews",
      "target": 34962
    }
  ],
  "buffers": [
    {
      "byteLength": 19195872,
      "uri": "scene.bin"
    }
  ],
  "images": [
    {
      "uri": "textures/material_0_baseColor.png"
    },
    {
      "uri": "textures/material_0_metallicRoughness.png"
    },
    {
      "uri": "textures/material_0_emissive.png"
    },
    {
      "uri": "textures/material_0_normal.png"
    }
  ],
  "materials": [
    {
      "doubleSided": true,
      "emissiveFactor": [
        1.0,
        1.0,
        1.0
      ],
      "emissiveTexture": {
        "index": 2,
        "texCoord": 2
      },
      "name": "material_0",
      "normalTexture": {
        "index": 3,
        "texCoord": 3
      },
      "pbrMetallicRoughness": {
        "baseColorTexture": {
          "index": 0
        },
        "metallicRoughnessTexture": {
          "index": 1,
          "texCoord": 1
        }
      }
    }
  ],
  "meshes": [
    {
      "name": "Object_0",
      "primitives": [
        {
          "attributes": {
            "NORMAL": 1,
            "POSITION": 0,
            "TANGENT": 2,
            "TEXCOORD_0": 3,
            "TEXCOORD_1": 4,
            "TEXCOORD_2": 5,
            "TEXCOORD_3": 6,
            "TEXCOORD_4": 7
          },
          "indices": 8,
          "material": 0,
          "mode": 4
        }
      ]
    },
    {
      "name": "Object_1",
      "primitives": [
        {
          "attributes": {
            "NORMAL": 10,
            "POSITION": 9,
            "TANGENT": 11,
            "TEXCOORD_0": 12,
            "TEXCOORD_1": 13,
            "TEXCOORD_2": 14,
            "TEXCOORD_3": 15,
            "TEXCOORD_4": 16
          },
          "indices": 17,
          "material": 0,
          "mode": 4
        }
      ]
    },
    {
      "name": "Object_2",
      "primitives": [
        {
          "attributes": {
            "NORMAL": 19,
            "POSITION": 18,
            "TANGENT": 20,
            "TEXCOORD_0": 21,
            "TEXCOORD_1": 22,
            "TEXCOORD_2": 23,
            "TEXCOORD_3": 24,
            "TEXCOORD_4": 25
          },
          "indices": 26,
          "material": 0,
          "mode": 4
        }
      ]
    }
  ],
  "nodes": [
    {
      "children": [
        1
      ],
      "matrix": [
        1.0,
        0.0,
        0.0,
        0.0,
        0.0,
        2.220446049250313e-16,
        -1.0,
        0.0,
        0.0,
        1.0,
        2.220446049250313e-16,
        0.0,
        0.0,
        0.0,
        0.0,
        1.0
      ],
      "name": "Sketchfab_model"
    },
    {
      "children": [
        2
      ],
      "name": "root"
    },
    {
      "children": [
        3
      ],
      "matrix": [
        1.0,
        0.0,
        0.0,
        0.0,
        0.0,
        2.220446049250313e-16,
        1.0,
        0.0,
        0.0,
        -1.0,
        2.220446049250313e-16,
        0.0,
        0.0,
        0.0,
        0.0,
        1.0
      ],
      "name": "GLTF_SceneRootNode"
    },
    {
      "children": [
        4
      ],
      "name": "_1"
    },
    {
      "children": [
        5,
        6,
        7
      ],
      "name": "mesh_0_0"
    },
    {
      "mesh": 0,
      "name": "Object_5"
    },
    {
      "mesh": 1,
      "name": "Object_6"
    },
    {
      "mesh": 2,
      "name": "Object_7"
    }
  ],
  "samplers": [
    {
      "magFilter": 9729,
      "minFilter": 9987,
      "wrapS": 10497,
      "wrapT": 10497
    }
  ],
  "scene": 0,
  "scenes": [
    {
      "name": "Sketchfab_Scene",
      "nodes": [
        0
      ]
    }
  ],
  "textures": [
    {
      "sampler": 0,
      "source": 0
    },
    {
      "sampler": 0,
      "source": 1
    },
    {
      "sampler": 0,
      "source": 2
    },
    {
      "sampler": 0,
      "source": 3
    }
  ]
}
