{
  "accessors": [
    {
      "bufferView": 3,
      "componentType": 5126,
      "count": 30000,
      "max": [
        0.43778300285339355,
        1.0001200437545776,
        0.20085006952285767
      ],
      "min": [
        -0.438057005405426,
        -0.9977229833602905,
        -0.19116704165935516
      ],
      "type": "VEC3"
    },
    {
      "bufferView": 3,
      "byteOffset": 360000,
      "componentType": 5126,
      "count": 30000,
      "max": [
        0.9999966025352478,
        0.9981706738471985,
        0.999943733215332
      ],
      "min": [
        -0.9999954700469971,
        -0.9998955130577087,
        -0.9999621510505676
      ],
      "type": "VEC3"
    },
    {
      "bufferView": 2,
      "componentType": 5126,
      "count": 30000,
      "max": [
        0.9999470114707947,
        0.9960319995880127
      ],
      "min": [
        2.760660026979167e-05,
        3.810320049524307e-05
      ],
      "type": "VEC2"
    },
    {
      "bufferView": 1,
      "componentType": 5125,
      "count": 30000,
      "type": "SCALAR"
    },
    {
      "bufferView": 5,
      "componentType": 5126,
      "count": 34,
      "max": [
        100.0,
        90.9032974243164,
        99.38660430908203,
        0.0,
        31.327167510986328,
        100.0,
        99.8013687133789,
        0.0,
        99.8323745727539,
        98.43868255615234,
        100.0,
        0.0,
        28.844646453857422,
        40.349449157714844,
        96.99874114990234,
        1.0
      ],
      "min": [
        -99.67198181152344,
        -90.9032974243164,
        -98.6607666015625,
        0.0,
        -30.074800491333008,
        -99.36946868896484,
        -89.19505310058594,
        0.0,
        -99.98882293701172,
        -22.488910675048828,
        -69.46929931640625,
        0.0,
        -28.400081634521484,
        -73.0211410522461,
        -11.433857917785645,
        1.0
      ],
      "type": "MAT4"
    },
    {
      "bufferView": 0,
      "componentType": 5123,
      "count": 30000,
      "type": "VEC4"
    },
    {
      "bufferView": 4,
      "componentType": 5126,
      "count": 30000,
      "max": [
        1.0,
        0.49994903802871704,
        0.271273672580719,
        0.1969929039478302
      ],
      "min": [
        0.2961229979991913,
        0.0,
        0.0,
        0.0
      ],
      "type": "VEC4"
    },
    {
      "bufferView": 6,
      "componentType": 5126,
      "count": 252,
      "max": [
        8.766666412353516
      ],
      "min": [
        0.0
      ],
      "type": "SCALAR"
    },
    {
      "bufferView": 7,
      "componentType": 5126,
      "count": 252,
      "max": [
        7.105427357601002e-15,
        9.172199249267578,
        3.6150059700012207
      ],
      "min": [
        -7.105427357601002e-15,
        9.172199249267578,
        3.6150059700012207
      ],
      "type": "VEC3"
    },
    {
      "bufferView": 6,
      "byteOffset": 1008,
      "componentType": 5126,
      "count": 264,
      "max": [
        8.766666412353516
      ],
      "min": [
        0.0
      ],
      "type": "SCALAR"
    },
    {
      "bufferView": 8,
      "componentType": 5126,
      "count": 264,
      "max": [
        0.13488511741161346,
        0.04408368095755577,
        -0.07051066309213638,
        0.9972625374794006
      ],
      "min": [
        -0.020004386082291603,
        0.001742933294735849,
        -0.0999770537018776,
        0.9876394271850586
      ],
      "type": "VEC4"
    },
    {
      "bufferView": 6,
      "byteOffset": 2064,
      "componentType": 5126,
      "count": 250,
      "max": [
        8.766666412353516
      ],
      "min": [
        0.0
      ],
      "type": "SCALAR"
    },
    {
      "bufferView": 7,
      "byteOffset": 3024,
      "componentType": 5126,
      "count": 250,
      "max": [
        1.0658141036401503e-14,
        14.473650932312012,
        1.6243910749835777e-07
      ],
      "min": [
        -1.4210854715202004e-14,
        14.473650932312012,
        1.6243906486579363e-07
      ],
      "type": "VEC3"
    },
    {
      "bufferView": 6,
      "byteOffset": 3064,
      "componentType": 5126,
      "count": 264,
      "max": [
        8.766666412353516
      ],
      "min": [
        0.0
      ],
      "type": "SCALAR"
    },
    {
      "bufferView": 8,
      "byteOffset": 4224,
      "componentType": 5126,
      "count": 264,
      "max": [
        0.14450842142105103,
        0.009119723923504353,
        -0.01693444512784481,
        0.9939757585525513
      ],
      "min": [
        0.10785196721553802,
        0.00024123642651829869,
        -0.03457561880350113,
        0.9891646504402161
      ],
      "type": "VEC4"
    },
    {
      "bufferView": 6,
      "byteOffset": 4120,
      "componentType": 5126,
      "count": 1,
      "max": [
        0.0
      ],
      "min": [
        0.0
      ],
      "type": "SCALAR"
    },
    {
      "bufferView": 8,
      "byteOffset": 8448,
      "componentType": 5126,
      "count": 1,
      "max": [
        0.004357358440756798,
        -0.006122865714132786,
        -0.10240726172924042,
        0.9947141408920288
      ],
      "min": [
        0.004357358440756798,
        -0.006122865714132786,
        -0.10240726172924042,
        0.9947141408920288
      ],
      "type": "VEC4"
    },
    {
      "bufferView": 6,
      "byteOffset": 4124,
      "componentType": 5126,
      "count": 1,
      "max": [
        0.0
      ],
      "min": [
        0.0
      ],
      "type": "SCALAR"
    },
    {
      "bufferView": 8,
      "byteOffset": 8464,
      "componentType": 5126,
      "count": 1,
      "max": [
        0.29242730140686035,
        0.024475805461406708,
        0.033987175673246384,
        0.9553701281547546
      ],
      "min": [
        0.29242730140686035,
        0.024475805461406708,
        0.033987175673246384,
        0.9553701281547546
      ],
      "type": "VEC4"
    },
    {
      "bufferView": 6,
      "byteOffset": 4128,
      "componentType": 5126,
      "count": 1,
      "max": [
        0.0
      ],
      "min": [
        0.0
      ],
      "type": "SCALAR"
    },
    {
      "bufferView": 8,
      "byteOffset": 8480,
      "componentType": 5126,
      "count": 1,
      "max": [
        0.06144394725561142,
        0.27421125769615173,
        0.019466333091259003,
        0.9595071077346802
      ],
      "min": [
        0.06144394725561142,
        0.27421125769615173,
        0.019466333091259003,
        0.9595071077346802
      ],
      "type": "VEC4"
    },
    {
      "bufferView": 6,
      "byteOffset": 4132,
      "componentType": 5126,
      "count": 5,
      "max": [
        8.766666412353516
      ],
      "min": [
        0.0
      ],
      "type": "SCALAR"
    },
    {
      "bufferView": 7,
      "byteOffset": 6024,
      "componentType": 5126,
      "count": 5,
      "max": [
        4.721037782928761e-07,
        27.57537078857422,
        4.2923255705318297e-07
      ],
      "min": [
        4.721037782928761e-07,
        27.57537078857422,
        4.2923252863147354e-07
      ],
      "type": "VEC3"
    },
    {
      "bufferView": 6,
      "byteOffset": 4152,
      "componentType": 5126,
      "count": 264,
      "max": [
        8.766666412353516
      ],
      "min": [
        0.0
      ],
      "type": "SCALAR"
    },
    {
      "bufferView": 8,
      "byteOffset": 8496,
      "componentType": 5126,
      "count": 264,
      "max": [
        0.07228044420480728,
        0.019490722566843033,
        0.1056964099407196,
        0.9983760714530945
      ],
      "min": [
        0.02058093436062336,
        -0.04340294748544693,
        0.002028819639235735,
        0.9940465688705444
      ],
      "type": "VEC4"
    },
    {
      "bufferView": 6,
      "byteOffset": 5208,
      "componentType": 5126,
      "count": 260,
      "max": [
        8.766666412353516
      ],
      "min": [
        0.0
      ],
      "type": "SCALAR"
    },
    {
      "bufferView": 7,
      "byteOffset": 6084,
      "componentType": 5126,
      "count": 260,
      "max": [
        -1.8655370581655006e-09,
        28.123783111572266,
        9.37972259862363e-08
      ],
      "min": [
        -1.8655583744475734e-09,
        28.123783111572266,
        9.379718335367215e-08
      ],
      "type": "VEC3"
    },
    {
      "bufferView": 6,
      "byteOffset": 6248,
      "componentType": 5126,
      "count": 264,
      "max": [
        8.766666412353516
      ],
      "min": [
        0.0
      ],
      "type": "SCALAR"
    },
    {
      "bufferView": 8,
      "byteOffset": 12720,
      "componentType": 5126,
      "count": 264,
      "max": [
        -0.0035683508031070232,
        0.0077005596831440926,
        0.21978282928466797,
        0.9933971166610718
      ],
      "min": [
        -0.006854792591184378,
        -0.0003319221723359078,
        0.11441230773925781,
        0.9755246639251709
      ],
      "type": "VEC4"
    },
    {
      "bufferView": 6,
      "byteOffset": 7304,
      "componentType": 5126,
      "count": 262,
      "max": [
        8.766666412353516
      ],
      "min": [
        0.0
      ],
      "type": "SCALAR"
    },
    {
      "bufferView": 7,
      "byteOffset": 9204,
      "componentType": 5126,
      "count": 262,
      "max": [
        7.497705922787645e-08,
        14.662028312683105,
        3.9792624306755897e-07
      ],
      "min": [
        7.497703791159438e-08,
        14.662028312683105,
        3.9792612938072125e-07
      ],
      "type": "VEC3"
    },
    {
      "bufferView": 6,
      "byteOffset": 8352,
      "componentType": 5126,
      "count": 264,
      "max": [
        8.766666412353516
      ],
      "min": [
        0.0
      ],
      "type": "SCALAR"
    },
    {
      "bufferView": 8,
      "byteOffset": 16944,
      "componentType": 5126,
      "count": 264,
      "max": [
        0.5493151545524597,
        0.23886190354824066,
        0.007325114216655493,
        0.8431661128997803
      ],
      "min": [
        0.5040625333786011,
        0.1787717342376709,
        -0.07198681682348251,
        0.8020126223564148
      ],
      "type": "VEC4"
    },
    {
      "bufferView": 6,
      "byteOffset": 9408,
      "componentType": 5126,
      "count": 264,
      "max": [
        8.766666412353516
      ],
      "min": [
        0.0
      ],
      "type": "SCALAR"
    },
    {
      "bufferView": 8,
      "byteOffset": 21168,
      "componentType": 5126,
      "count": 264,
      "max": [
        -0.49974071979522705,
        -0.4153992235660553,
        0.6105175018310547,
        -0.381091445684433
      ],
      "min": [
        -0.5647850036621094,
        -0.47350645065307617,
        0.598404586315155,
        -0.402655690908432
      ],
      "type": "VEC4"
    },
    {
      "bufferView": 6,
      "byteOffset": 10464,
      "componentType": 5126,
      "count": 264,
      "max": [
        8.766666412353516
      ],
      "min": [
        0.0
      ],
      "type": "SCALAR"
    },
    {
      "bufferView": 8,
      "byteOffset": 25392,
      "componentType": 5126,
      "count": 264,
      "max": [
        -0.09413256496191025,
        -0.0010680996347218752,
        0.09904303401708603,
        0.9907315373420715
      ],
      "min": [
        -0.0970286950469017,
        -0.0011985955061390996,
        0.0979216992855072,
        0.9903407096862793
      ],
      "type": "VEC4"
    },
    {
      "bufferView": 6,
      "byteOffset": 11520,
      "componentType": 5126,
      "count": 261,
      "max": [
        8.766666412353516
      ],
      "min": [
        0.0
      ],
      "type": "SCALAR"
    },
    {
      "bufferView": 7,
      "byteOffset": 12348,
      "componentType": 5126,
      "count": 261,
      "max": [
        -1.2621766742881846e-08,
        4.4577860832214355,
        -4.291612754059315e-08
      ],
      "min": [
        -1.2621775624666043e-08,
        4.4577860832214355,
        -4.2916148856875225e-08
      ],
      "type": "VEC3"
    },
    {
      "bufferView": 6,
      "byteOffset": 12564,
      "componentType": 5126,
      "count": 264,
      "max": [
        8.766666412353516
      ],
      "min": [
        0.0
      ],
      "type": "SCALAR"
    },
    {
      "bufferView": 8,
      "byteOffset": 29616,
      "componentType": 5126,
      "count": 264,
      "max": [
        0.2118070274591446,
        0.0013954929308965802,
        -0.06505028158426285,
        0.9870895743370056
      ],
      "min": [
        0.1463623344898224,
        0.0008385211112909019,
        -0.0903024971485138,
        0.9731296300888062
      ],
      "type": "VEC4"
    },
    {
      "bufferView": 6,
      "byteOffset": 13620,
      "componentType": 5126,
      "count": 238,
      "max": [
        8.766666412353516
      ],
      "min": [
        0.0
      ],
      "type": "SCALAR"
    },
    {
      "bufferView": 7,
      "byteOffset": 15480,
      "componentType": 5126,
      "count": 238,
      "max": [
        -1.6319835083322687e-07,
        7.454793453216553,
        3.07729592918804e-08
      ],
      "min": [
        -1.6319836504408158e-07,
        7.454793453216553,
        3.077293087017097e-08
      ],
      "type": "VEC3"
    },
    {
      "bufferView": 6,
      "byteOffset": 14572,
      "componentType": 5126,
      "count": 264,
      "max": [
        8.766666412353516
      ],
      "min": [
        0.0
      ],
      "type": "SCALAR"
    },
    {
      "bufferView": 8,
      "byteOffset": 33840,
      "componentType": 5126,
      "count": 264,
      "max": [
        0.0842152014374733,
        -0.2499934583902359,
        -0.008456001989543438,
        0.9655100107192993
      ],
      "min": [
        0.07123352587223053,
        -0.2508828341960907,
        -0.014816539362072945,
        0.9643101692199707
      ],
      "type": "VEC4"
    },
    {
      "bufferView": 6,
      "byteOffset": 15628,
      "componentType": 5126,
      "count": 164,
      "max": [
        8.766666412353516
      ],
      "min": [
        0.0
      ],
      "type": "SCALAR"
    },
    {
      "bufferView": 7,
      "byteOffset": 18336,
      "componentType": 5126,
      "count": 164,
      "max": [
        -2.4496532091689005e-07,
        27.40155601501465,
        4.886833266937174e-07
      ],
      "min": [
        -2.4496532091689005e-07,
        27.40155601501465,
        4.886832698502985e-07
      ],
      "type": "VEC3"
    },
    {
      "bufferView": 6,
      "byteOffset": 16284,
      "componentType": 5126,
      "count": 264,
      "max": [
        8.766666412353516
      ],
      "min": [
        0.0
      ],
      "type": "SCALAR"
    },
    {
      "bufferView": 8,
      "byteOffset": 38064,
      "componentType": 5126,
      "count": 264,
      "max": [
        0.0339827686548233,
        0.1107017919421196,
        0.05805426836013794,
        0.9958314299583435
      ],
      "min": [
        0.01631879433989525,
        0.08247284591197968,
        -0.002640533959493041,
        0.9930163025856018
      ],
      "type": "VEC4"
    },
    {
      "bufferView": 6,
      "byteOffset": 17340,
      "componentType": 5126,
      "count": 252,
      "max": [
        8.766666412353516
      ],
      "min": [
        0.0
      ],
      "type": "SCALAR"
    },
    {
      "bufferView": 7,
      "byteOffset": 20304,
      "componentType": 5126,
      "count": 252,
      "max": [
        3.8698949822446593e-08,
        28.135038375854492,
        -5.90093179653195e-07
      ],
      "min": [
        3.869892850616452e-08,
        28.135038375854492,
        -5.900932364966138e-07
      ],
      "type": "VEC3"
    },
    {
      "bufferView": 6,
      "byteOffset": 18348,
      "componentType": 5126,
      "count": 264,
      "max": [
        8.766666412353516
      ],
      "min": [
        0.0
      ],
      "type": "SCALAR"
    },
    {
      "bufferView": 8,
      "byteOffset": 42288,
      "componentType": 5126,
      "count": 264,
      "max": [
        0.005606799386441708,
        -0.002746636513620615,
        -0.07747959345579147,
        0.9969474077224731
      ],
      "min": [
        0.0026486350689083338,
        -0.009262957610189915,
        -0.16400909423828125,
        0.986439049243927
      ],
      "type": "VEC4"
    },
    {
      "bufferView": 6,
      "byteOffset": 19404,
      "componentType": 5126,
      "count": 228,
      "max": [
        8.766666412353516
      ],
      "min": [
        0.0
      ],
      "type": "SCALAR"
    },
    {
      "bufferView": 7,
      "byteOffset": 23328,
      "componentType": 5126,
      "count": 228,
      "max": [
        -8.27042185846949e-08,
        14.662028312683105,
        3.963983203902899e-07
      ],
      "min": [
        -8.270424700640433e-08,
        14.662028312683105,
        3.963982351251616e-07
      ],
      "type": "VEC3"
    },
    {
      "bufferView": 6,
      "byteOffset": 20316,
      "componentType": 5126,
      "count": 264,
      "max": [
        8.766666412353516
      ],
      "min": [
        0.0
      ],
      "type": "SCALAR"
    },
    {
      "bufferView": 8,
      "byteOffset": 46512,
      "componentType": 5126,
      "count": 264,
      "max": [
        0.38755467534065247,
        -0.16066205501556396,
        0.14581625163555145,
        0.9205643534660339
      ],
      "min": [
        0.33729568123817444,
        -0.19435539841651917,
        0.06415597349405289,
        0.8978655338287354
      ],
      "type": "VEC4"
    },
    {
      "bufferView": 6,
      "byteOffset": 21372,
      "componentType": 5126,
      "count": 264,
      "max": [
        8.766666412353516
      ],
      "min": [
        0.0
      ],
      "type": "SCALAR"
    },
    {
      "bufferView": 8,
      "byteOffset": 50736,
      "componentType": 5126,
      "count": 264,
      "max": [
        0.6092287302017212,
        -0.3754981458187103,
        0.6082932353019714,
        0.39521515369415283
      ],
      "min": [
        0.5380492806434631,
        -0.4383554458618164,
        0.5821439027786255,
        0.3791162669658661
      ],
      "type": "VEC4"
    },
    {
      "bufferView": 6,
      "byteOffset": 22428,
      "componentType": 5126,
      "count": 260,
      "max": [
        8.766666412353516
      ],
      "min": [
        0.0
      ],
      "type": "SCALAR"
    },
    {
      "bufferView": 7,
      "byteOffset": 26064,
      "componentType": 5126,
      "count": 260,
      "max": [
        3.552713678800501e-15,
        12.865471839904785,
        6.24986711272868e-08
      ],
      "min": [
        -5.3290705182007514e-15,
        12.865471839904785,
        6.249864270557737e-08
      ],
      "type": "VEC3"
    },
    {
      "bufferView": 6,
      "byteOffset": 23468,
      "componentType": 5126,
      "count": 264,
      "max": [
        8.766666412353516
      ],
      "min": [
        0.0
      ],
      "type": "SCALAR"
    },
    {
      "bufferView": 8,
      "byteOffset": 54960,
      "componentType": 5126,
      "count": 264,
      "max": [
        0.020591510459780693,
        -0.011916195042431355,
        0.05401641130447388,
        0.9994297623634338
      ],
      "min": [
        -0.020960256457328796,
        -0.026806989684700966,
        0.030959846451878548,
        0.9981812834739685
      ],
      "type": "VEC4"
    },
    {
      "bufferView": 6,
      "byteOffset": 24524,
      "componentType": 5126,
      "count": 257,
      "max": [
        8.766666412353516
      ],
      "min": [
        0.0
      ],
      "type": "SCALAR"
    },
    {
      "bufferView": 7,
      "byteOffset": 29184,
      "componentType": 5126,
      "count": 257,
      "max": [
        8.881784197001252e-16,
        11.257285118103027,
        8.56598774134909e-08
      ],
      "min": [
        -8.881784197001252e-16,
        11.257285118103027,
        8.565984899178147e-08
      ],
      "type": "VEC3"
    },
    {
      "bufferView": 6,
      "byteOffset": 25552,
      "componentType": 5126,
      "count": 264,
      "max": [
        8.766666412353516
      ],
      "min": [
        0.0
      ],
      "type": "SCALAR"
    },
    {
      "bufferView": 8,
      "byteOffset": 59184,
      "componentType": 5126,
      "count": 264,
      "max": [
        0.020146353170275688,
        -0.012450139969587326,
        0.05303610488772392,
        0.9994300007820129
      ],
      "min": [
        -0.02117101661860943,
        -0.028674887493252754,
        0.030767271295189857,
        0.9981812834739685
      ],
      "type": "VEC4"
    },
    {
      "bufferView": 6,
      "byteOffset": 26608,
      "componentType": 5126,
      "count": 258,
      "max": [
        8.766666412353516
      ],
      "min": [
        0.0
      ],
      "type": "SCALAR"
    },
    {
      "bufferView": 7,
      "byteOffset": 32268,
      "componentType": 5126,
      "count": 258,
      "max": [
        1.7763568394002505e-15,
        9.49587631225586,
        -1.7127480506896973
      ],
      "min": [
        -3.552713678800501e-15,
        9.49587631225586,
        -1.7127481698989868
      ],
      "type": "VEC3"
    },
    {
      "bufferView": 6,
      "byteOffset": 27640,
      "componentType": 5126,
      "count": 264,
      "max": [
        8.766666412353516
      ],
      "min": [
        0.0
      ],
      "type": "SCALAR"
    },
    {
      "bufferView": 8,
      "byteOffset": 63408,
      "componentType": 5126,
      "count": 264,
      "max": [
        -0.09244411438703537,
        -0.005933485459536314,
        0.03977016359567642,
        0.994940459728241
      ],
      "min": [
        -0.1095578595995903,
        -0.015866966918110847,
        0.024290207773447037,
        0.9931447505950928
      ],
      "type": "VEC4"
    },
    {
      "bufferView": 6,
      "byteOffset": 28696,
      "componentType": 5126,
      "count": 154,
      "max": [
        8.766666412353516
      ],
      "min": [
        0.0
      ],
      "type": "SCALAR"
    },
    {
      "bufferView": 7,
      "byteOffset": 35364,
      "componentType": 5126,
      "count": 154,
      "max": [
        -8.201344314784365e-08,
        22.705259323120117,
        -2.2287875367510424e-07
      ],
      "min": [
        -8.201347156955308e-08,
        22.705259323120117,
        -2.2287875367510424e-07
      ],
      "type": "VEC3"
    },
    {
      "bufferView": 6,
      "byteOffset": 29312,
      "componentType": 5126,
      "count": 264,
      "max": [
        8.766666412353516
      ],
      "min": [
        0.0
      ],
      "type": "SCALAR"
    },
    {
      "bufferView": 8,
      "byteOffset": 67632,
      "componentType": 5126,
      "count": 264,
      "max": [
        0.2664279341697693,
        -0.09161391109228134,
        0.02862882986664772,
        0.9595869183540344
      ],
      "min": [
        0.2645377218723297,
        -0.09185919910669327,
        0.028587928041815758,
        0.9590415954589844
      ],
      "type": "VEC4"
    },
    {
      "bufferView": 6,
      "byteOffset": 30368,
      "componentType": 5126,
      "count": 246,
      "max": [
        8.766666412353516
      ],
      "min": [
        0.0
      ],
      "type": "SCALAR"
    },
    {
      "bufferView": 7,
      "byteOffset": 37212,
      "componentType": 5126,
      "count": 246,
      "max": [
        6.551587716785434e-08,
        46.73021697998047,
        6.136809815870947e-08
      ],
      "min": [
        6.551586295699963e-08,
        46.73021697998047,
        6.136808394785476e-08
      ],
      "type": "VEC3"
    },
    {
      "bufferView": 6,
      "byteOffset": 31352,
      "componentType": 5126,
      "count": 264,
      "max": [
        8.766666412353516
      ],
      "min": [
        0.0
      ],
      "type": "SCALAR"
    },
    {
      "bufferView": 8,
      "byteOffset": 71856,
      "componentType": 5126,
      "count": 264,
      "max": [
        0.5062378644943237,
        -0.042471446096897125,
        -0.005600779317319393,
        0.8645252585411072
      ],
      "min": [
        0.5005151629447937,
        -0.047115206718444824,
        -0.01639525033533573,
        0.8610116243362427
      ],
      "type": "VEC4"
    },
    {
      "bufferView": 6,
      "byteOffset": 32408,
      "componentType": 5126,
      "count": 251,
      "max": [
        8.766666412353516
      ],
      "min": [
        0.0
      ],
      "type": "SCALAR"
    },
    {
      "bufferView": 7,
      "byteOffset": 40164,
      "componentType": 5126,
      "count": 251,
      "max": [
        3.5501227557688253e-07,
        52.2095947265625,
        1.3930133491157903e-08
      ],
      "min": [
        3.550122471551731e-07,
        52.2095947265625,
        1.3930105069448473e-08
      ],
      "type": "VEC3"
    },
    {
      "bufferView": 6,
      "byteOffset": 33412,
      "componentType": 5126,
      "count": 264,
      "max": [
        8.766666412353516
      ],
      "min": [
        0.0
      ],
      "type": "SCALAR"
    },
    {
      "bufferView": 8,
      "byteOffset": 76080,
      "componentType": 5126,
      "count": 264,
      "max": [
        -0.23504984378814697,
        0.03837460279464722,
        0.01764545403420925,
        0.9718005061149597
      ],
      "min": [
        -0.26681414246559143,
        0.009661020711064339,
        0.013334696181118488,
        0.9631558656692505
      ],
      "type": "VEC4"
    },
    {
      "bufferView": 6,
      "byteOffset": 34468,
      "componentType": 5126,
      "count": 177,
      "max": [
        8.766666412353516
      ],
      "min": [
        0.0
      ],
      "type": "SCALAR"
    },
    {
      "bufferView": 7,
      "byteOffset": 43176,
      "componentType": 5126,
      "count": 177,
      "max": [
        12.361895561218262,
        -5.279752731323242,
        1.990351676940918
      ],
      "min": [
        12.361895561218262,
        -5.279752731323242,
        1.9903515577316284
      ],
      "type": "VEC3"
    },
    {
      "bufferView": 6,
      "byteOffset": 35176,
      "componentType": 5126,
      "count": 264,
      "max": [
        8.766666412353516
      ],
      "min": [
        0.0
      ],
      "type": "SCALAR"
    },
    {
      "bufferView": 8,
      "byteOffset": 80304,
      "componentType": 5126,
      "count": 264,
      "max": [
        0.14167776703834534,
        0.2074756920337677,
        0.9700324535369873,
        -0.1130899041891098
      ],
      "min": [
        0.13227854669094086,
        0.16304239630699158,
        0.9592127799987793,
        -0.13661235570907593
      ],
      "type": "VEC4"
    },
    {
      "bufferView": 6,
      "byteOffset": 36232,
      "componentType": 5126,
      "count": 250,
      "max": [
        8.766666412353516
      ],
      "min": [
        0.0
      ],
      "type": "SCALAR"
    },
    {
      "bufferView": 7,
      "byteOffset": 45300,
      "componentType": 5126,
      "count": 250,
      "max": [
        5.710185746465868e-08,
        22.477678298950195,
        -3.3759292250579165e-07
      ],
      "min": [
        5.710185035923132e-08,
        22.477678298950195,
        -3.3759292250579165e-07
      ],
      "type": "VEC3"
    },
    {
      "bufferView": 6,
      "byteOffset": 37232,
      "componentType": 5126,
      "count": 264,
      "max": [
        8.766666412353516
      ],
      "min": [
        0.0
      ],
      "type": "SCALAR"
    },
    {
      "bufferView": 8,
      "byteOffset": 84528,
      "componentType": 5126,
      "count": 264,
      "max": [
        0.2908104360103607,
        0.09197897464036942,
        -0.02765738032758236,
        0.9527885317802429
      ],
      "min": [
        0.28814801573753357,
        0.09163414686918259,
        -0.027712421491742134,
        0.9519475698471069
      ],
      "type": "VEC4"
    },
    {
      "bufferView": 6,
      "byteOffset": 38288,
      "componentType": 5126,
      "count": 262,
      "max": [
        8.766666412353516
      ],
      "min": [
        0.0
      ],
      "type": "SCALAR"
    },
    {
      "bufferView": 7,
      "byteOffset": 48300,
      "componentType": 5126,
      "count": 262,
      "max": [
        -9.591400562669605e-09,
        46.65150451660156,
        1.7348332903566188e-07
      ],
      "min": [
        -9.591410332632222e-09,
        46.65150451660156,
        1.7348330061395245e-07
      ],
      "type": "VEC3"
    },
    {
      "bufferView": 6,
      "byteOffset": 39336,
      "componentType": 5126,
      "count": 264,
      "max": [
        8.766666412353516
      ],
      "min": [
        0.0
      ],
      "type": "SCALAR"
    },
    {
      "bufferView": 8,
      "byteOffset": 88752,
      "componentType": 5126,
      "count": 264,
      "max": [
        0.6523541808128357,
        0.008282525464892387,
        -0.08242828398942947,
        0.7596601843833923
      ],
      "min": [
        0.6449077129364014,
        0.005546036642044783,
        -0.09065762907266617,
        0.7528142929077148
      ],
      "type": "VEC4"
    },
    {
      "bufferView": 6,
      "byteOffset": 40392,
      "componentType": 5126,
      "count": 233,
      "max": [
        8.766666412353516
      ],
      "min": [
        0.0
      ],
      "type": "SCALAR"
    },
    {
      "bufferView": 7,
      "byteOffset": 51444,
      "componentType": 5126,
      "count": 233,
      "max": [
        -1.848379014290913e-07,
        52.2039794921875,
        1.97734806306471e-09
      ],
      "min": [
        -1.848379014290913e-07,
        52.2039794921875,
        1.977333852209995e-09
      ],
      "type": "VEC3"
    },
    {
      "bufferView": 6,
      "byteOffset": 41324,
      "componentType": 5126,
      "count": 264,
      "max": [
        8.766666412353516
      ],
      "min": [
        0.0
      ],
      "type": "SCALAR"
    },
    {
      "bufferView": 8,
      "byteOffset": 92976,
      "componentType": 5126,
      "count": 264,
      "max": [
        -0.27636563777923584,
        0.06615813076496124,
        0.024824954569339752,
        0.9604043364524841
      ],
      "min": [
        -0.301216185092926,
        0.023823723196983337,
        0.01862628571689129,
        0.9521357417106628
      ],
      "type": "VEC4"
    },
    {
      "bufferView": 6,
      "byteOffset": 42380,
      "componentType": 5126,
      "count": 179,
      "max": [
        8.766666412353516
      ],
      "min": [
        0.0
      ],
      "type": "SCALAR"
    },
    {
      "bufferView": 7,
      "byteOffset": 54240,
      "componentType": 5126,
      "count": 179,
      "max": [
        -12.361895561218262,
        -5.279752731323242,
        1.2191364765167236
      ],
      "min": [
        -12.361895561218262,
        -5.279752731323242,
        1.219136357307434
      ],
      "type": "VEC3"
    },
    {
      "bufferView": 6,
      "byteOffset": 43096,
      "componentType": 5126,
      "count": 264,
      "max": [
        8.766666412353516
      ],
      "min": [
        0.0
      ],
      "type": "SCALAR"
    },
    {
      "bufferView": 8,
      "byteOffset": 97200,
      "componentType": 5126,
      "count": 264,
      "max": [
        -0.0736437514424324,
        0.053129639476537704,
        0.9953692555427551,
        -0.0189654678106308
      ],
      "min": [
        -0.09343071281909943,
        0.022582219913601875,
        0.9946690797805786,
        -0.04894845932722092
      ],
      "type": "VEC4"
    },
    {
      "bufferView": 6,
      "byteOffset": 44152,
      "componentType": 5126,
      "count": 264,
      "max": [
        8.766666412353516
      ],
      "min": [
        0.0
      ],
      "type": "SCALAR"
    },
    {
      "bufferView": 7,
      "byteOffset": 56388,
      "componentType": 5126,
      "count": 264,
      "max": [
        0.5253118276596069,
        111.12726593017578,
        0.8902838230133057
      ],
      "min": [
        -1.1531081199645996,
        110.42378234863281,
        -1.9047768115997314
      ],
      "type": "VEC3"
    },
    {
      "bufferView": 6,
      "byteOffset": 45208,
      "componentType": 5126,
      "count": 264,
      "max": [
        8.766666412353516
      ],
      "min": [
        0.0
      ],
      "type": "SCALAR"
    },
    {
      "bufferView": 8,
      "byteOffset": 101424,
      "componentType": 5126,
      "count": 264,
      "max": [
        -0.025923507288098335,
        -0.05424179136753082,
        -0.014145946130156517,
        0.9974892735481262
      ],
      "min": [
        -0.03763618320226669,
        -0.07675017416477203,
        -0.03939099237322807,
        0.9961499571800232
      ],
      "type": "VEC4"
    }
  ],
  "animations": [
    {
      "channels": [
        {
          "sampler": 0,
          "target": {
            "node": 13,
            "path": "translation"
          }
        },
        {
          "sampler": 1,
          "target": {
            "node": 13,
            "path": "rotation"
          }
        },
        {
          "sampler": 2,
          "target": {
            "node": 12,
            "path": "translation"
          }
        },
        {
          "sampler": 3,
          "target": {
            "node": 12,
            "path": "rotation"
          }
        },
        {
          "sampler": 4,
          "target": {
            "node": 21,
            "path": "rotation"
          }
        },
        {
          "sampler": 5,
          "target": {
            "node": 20,
            "path": "rotation"
          }
        },
        {
          "sampler": 6,
          "target": {
            "node": 19,
            "path": "rotation"
          }
        },
        {
          "sampler": 7,
          "target": {
            "node": 18,
            "path": "translation"
          }
        },
        {
          "sampler": 8,
          "target": {
            "node": 18,
            "path": "rotation"
          }
        },
        {
          "sampler": 9,
          "target": {
            "node": 17,
            "path": "translation"
          }
        },
        {
          "sampler": 10,
          "target": {
            "node": 17,
            "path": "rotation"
          }
        },
        {
          "sampler": 11,
          "target": {
            "node": 16,
            "path": "translation"
          }
        },
        {
          "sampler": 12,
          "target": {
            "node": 16,
            "path": "rotation"
          }
        },
        {
          "sampler": 13,
          "target": {
            "node": 15,
            "path": "rotation"
          }
        },
        {
          "sampler": 14,
          "target": {
            "node": 29,
            "path": "rotation"
          }
        },
        {
          "sampler": 15,
          "target": {
            "node": 28,
            "path": "translation"
          }
        },
        {
          "sampler": 16,
          "target": {
            "node": 28,
            "path": "rotation"
          }
        },
        {
          "sampler": 17,
          "target": {
            "node": 27,
            "path": "translation"
          }
        },
        {
          "sampler": 18,
          "target": {
            "node": 27,
            "path": "rotation"
          }
        },
        {
          "sampler": 19,
          "target": {
            "node": 26,
            "path": "translation"
          }
        },
        {
          "sampler": 20,
          "target": {
            "node": 26,
            "path": "rotation"
          }
        },
        {
          "sampler": 21,
          "target": {
            "node": 25,
            "path": "translation"
          }
        },
        {
          "sampler": 22,
          "target": {
            "node": 25,
            "path": "rotation"
          }
        },
        {
          "sampler": 23,
          "target": {
            "node": 24,
            "path": "translation"
          }
        },
        {
          "sampler": 24,
          "target": {
            "node": 24,
            "path": "rotation"
          }
        },
        {
          "sampler": 25,
          "target": {
            "node": 23,
            "path": "rotation"
          }
        },
        {
          "sampler": 26,
          "target": {
            "node": 11,
            "path": "translation"
          }
        },
        {
          "sampler": 27,
          "target": {
            "node": 11,
            "path": "rotation"
          }
        },
        {
          "sampler": 28,
          "target": {
            "node": 10,
            "path": "translation"
          }
        },
        {
          "sampler": 29,
          "target": {
            "node": 10,
            "path": "rotation"
          }
        },
        {
          "sampler": 30,
          "target": {
            "node": 9,
            "path": "translation"
          }
        },
        {
          "sampler": 31,
          "target": {
            "node": 9,
            "path": "rotation"
          }
        },
        {
          "sampler": 32,
          "target": {
            "node": 34,
            "path": "translation"
          }
        },
        {
          "sampler": 33,
          "target": {
            "node": 34,
            "path": "rotation"
          }
        },
        {
          "sampler": 34,
          "target": {
            "node": 33,
            "path": "translation"
          }
        },
        {
          "sampler": 35,
          "target": {
            "node": 33,
            "path": "rotation"
          }
        },
        {
          "sampler": 36,
          "target": {
            "node": 32,
            "path": "translation"
          }
        },
        {
          "sampler": 37,
          "target": {
            "node": 32,
            "path": "rotation"
          }
        },
        {
          "sampler": 38,
          "target": {
            "node": 31,
            "path": "translation"
          }
        },
        {
          "sampler": 39,
          "target": {
            "node": 31,
            "path": "rotation"
          }
        },
        {
          "sampler": 40,
          "target": {
            "node": 39,
            "path": "translation"
          }
        },
        {
          "sampler": 41,
          "target": {
            "node": 39,
            "path": "rotation"
          }
        },
        {
          "sampler": 42,
          "target": {
            "node": 38,
            "path": "translation"
          }
        },
        {
          "sampler": 43,
          "target": {
            "node": 38,
            "path": "rotation"
          }
        },
        {
          "sampler": 44,
          "target": {
            "node": 37,
            "path": "translation"
          }
        },
        {
          "sampler": 45,
          "target": {
            "node": 37,
            "path": "rotation"
          }
        },
        {
          "sampler": 46,
          "target": {
            "node": 36,
            "path": "translation"
          }
        },
        {
          "sampler": 47,
          "target": {
            "node": 36,
            "path": "rotation"
          }
        },
        {
          "sampler": 48,
          "target": {
            "node": 8,
            "path": "translation"
          }
        },
        {
          "sampler": 49,
          "target": {
            "node": 8,
            "path": "rotation"
          }
        }
      ],
      "name": "mixamo.com",
      "samplers": [
        {
          "input": 7,
          "interpolation": "LINEAR",
          "output": 8
        },
        {
          "input": 9,
          "interpolation": "LINEAR",
          "output": 10
        },
        {
          "input": 11,
          "interpolation": "LINEAR",
          "output": 12
        },
        {
          "input": 13,
          "interpolation": "LINEAR",
          "output": 14
        },
        {
          "input": 15,
          "interpolation": "LINEAR",
          "output": 16
        },
        {
          "input": 17,
          "interpolation": "LINEAR",
          "output": 18
        },
        {
          "input": 19,
          "interpolation": "LINEAR",
          "output": 20
        },
        {
          "input": 21,
          "interpolation": "LINEAR",
          "output": 22
        },
        {
          "input": 23,
          "interpolation": "LINEAR",
          "output": 24
        },
        {
          "input": 25,
          "interpolation": "LINEAR",
          "output": 26
        },
        {
          "input": 27,
          "interpolation": "LINEAR",
          "output": 28
        },
        {
          "input": 29,
          "interpolation": "LINEAR",
          "output": 30
        },
        {
          "input": 31,
          "interpolation": "LINEAR",
          "output": 32
        },
        {
          "input": 33,
          "interpolation": "LINEAR",
          "output": 34
        },
        {
          "input": 35,
          "interpolation": "LINEAR",
          "output": 36
        },
        {
          "input": 37,
          "interpolation": "LINEAR",
          "output": 38
        },
        {
          "input": 39,
          "interpolation": "LINEAR",
          "output": 40
        },
        {
          "input": 41,
          "interpolation": "LINEAR",
          "output": 42
        },
        {
          "input": 43,
          "interpolation": "LINEAR",
          "output": 44
        },
        {
          "input": 45,
          "interpolation": "LINEAR",
          "output": 46
        },
        {
          "input": 47,
          "interpolation": "LINEAR",
          "output": 48
        },
        {
          "input": 49,
          "interpolation": "LINEAR",
          "output": 50
        },
        {
          "input": 51,
          "interpolation": "LINEAR",
          "output": 52
        },
        {
          "input": 53,
          "interpolation": "LINEAR",
          "output": 54
        },
        {
          "input": 55,
          "interpolation": "LINEAR",
          "output": 56
        },
        {
          "input": 57,
          "interpolation": "LINEAR",
          "output": 58
        },
        {
          "input": 59,
          "interpolation": "LINEAR",
          "output": 60
        },
        {
          "input": 61,
          "interpolation": "LINEAR",
          "output": 62
        },
        {
          "input": 63,
          "interpolation": "LINEAR",
          "output": 64
        },
        {
          "input": 65,
          "interpolation": "LINEAR",
          "output": 66
        },
        {
          "input": 67,
          "interpolation": "LINEAR",
          "output": 68
        },
        {
          "input": 69,
          "interpolation": "LINEAR",
          "output": 70
        },
        {
          "input": 71,
          "interpolation": "LINEAR",
          "output": 72
        },
        {
          "input": 73,
          "interpolation": "LINEAR",
          "output": 74
        },
        {
          "input": 75,
          "interpolation": "LINEAR",
          "output": 76
        },
        {
          "input": 77,
          "interpolation": "LINEAR",
          "output": 78
        },
        {
          "input": 79,
          "interpolation": "LINEAR",
          "output": 80
        },
        {
          "input": 81,
          "interpolation": "LINEAR",
          "output": 82
        },
        {
          "input": 83,
          "interpolation": "LINEAR",
          "output": 84
        },
        {
          "input": 85,
          "interpolation": "LINEAR",
          "output": 86
        },
        {
          "input": 87,
          "interpolation": "LINEAR",
          "output": 88
        },
        {
          "input": 89,
          "interpolation": "LINEAR",
          "output": 90
        },
        {
          "input": 91,
          "interpolation": "LINEAR",
          "output": 92
        },
        {
          "input": 93,
          "interpolation": "LINEAR",
          "output": 94
        },
        {
          "input": 95,
          "interpolation": "LINEAR",
          "output": 96
        },
        {
          "input": 97,
          "interpolation": "LINEAR",
          "output": 98
        },
        {
          "input": 99,
          "interpolation": "LINEAR",
          "output": 100
        },
        {
          "input": 101,
          "interpolation": "LINEAR",
          "output": 102
        },
        {
          "input": 103,
          "interpolation": "LINEAR",
          "output": 104
        },
        {
          "input": 105,
          "interpolation": "LINEAR",
          "output": 106
        }
      ]
    }
  ],
  "asset": {
    "extras": {
      "author": "KamillaKraus (https://sketchfab.com/KamillaKraus)",
      "license": "CC-BY-4.0 (http://creativecommons.org/licenses/by/4.0/)",
      "source": "https://sketchfab.com/3d-models/sci-fi-character-411a20067406464cbe4222112dc28ea6",
      "title": "Sci-Fi Character"
    },
    "generator": "Sketchfab-16.65.0",
    "version": "2.0"
  },
  "bufferViews": [
    {
      "buffer": 0,
      "byteLength": 240000,
      "byteStride": 8,
      "name": "shortBufferViews",
      "target": 34962
    },
    {
      "buffer": 0,
      "byteLength": 120000,
      "byteOffset": 240000,
      "name": "floatBufferViews",
      "target": 34963
    },
    {
      "buffer": 0,
      "byteLength": 240000,
      "byteOffset": 360000,
      "byteStride": 8,
      "name": "floatBufferViews",
      "target": 34962
    },
    {
      "buffer": 0,
      "byteLength": 720000,
      "byteOffset": 600000,
      "byteStride": 12,
      "name": "floatBufferViews",
      "target": 34962
    },
    {
      "buffer": 0,
      "byteLength": 480000,
      "byteOffset": 1320000,
      "byteStride": 16,
      "name": "floatBufferViews",
      "target": 34962
    },
    {
      "buffer": 0,
      "byteLength": 2176,
      "byteOffset": 1800000,
      "name": "floatBufferViews"
    },
    {
      "buffer": 0,
      "byteLength": 46264,
      "byteOffset": 1802176,
      "name": "floatBufferViews"
    },
    {
      "buffer": 0,
      "byteLength": 59556,
      "byteOffset": 1848440,
      "byteStride": 12,
      "name": "floatBufferViews"
    },
    {
      "buffer": 0,
      "byteLength": 105648,
      "byteOffset": 1907996,
      "byteStride": 16,
      "name": "floatBufferViews"
    }
  ],
  "buffers": [
    {
      "byteLength": 2013644,
      "uri": "scene.bin"
    }
  ],
  "images": [
    {
      "uri": "textures/Material.001_baseColor.png"
    }
  ],
  "materials": [
    {
      "doubleSided": true,
      "name": "Material.001",
      "pbrMetallicRoughness": {
        "baseColorTexture": {
          "index": 0
        },
        "metallicFactor": 0.0,
        "roughnessFactor": 0.4956175104533652
      }
    }
  ],
  "meshes": [
    {
      "name": "temp_Material.001_0",
      "primitives": [
        {
          "attributes": {
            "JOINTS_0": 5,
            "NORMAL": 1,
            "POSITION": 0,
            "TEXCOORD_0": 2,
            "WEIGHTS_0": 6
          },
          "indices": 3,
          "material": 0,
          "mode": 4
        }
      ]
    }
  ],
  "nodes": [
    {
      "children": [
        1
      ],
      "matrix": [
        1.0,
        0.0,
        0.0,
        0.0,
        0.0,
        2.220446049250313e-16,
        -1.0,
        0.0,
        0.0,
        1.0,
        2.220446049250313e-16,
        0.0,
        0.0,
        0.0,
        0.0,
        1.0
      ],
      "name": "Sketchfab_model"
    },
    {
      "children": [
        2
      ],
      "matrix": [
        0.009999999776482582,
        0.0,
        0.0,
        0.0,
        0.0,
        0.0,
        0.009999999776482582,
        0.0,
        0.0,
        -0.009999999776482582,
        0.0,
        0.0,
        0.0,
        0.0,
        0.0,
        1.0
      ],
      "name": "749273b5bcc9463da8f8a221d925d5de.fbx"
    },
    {
      "children": [
        3
      ],
      "name": "Object_2"
    },
    {
      "children": [
        4
      ],
      "name": "RootNode"
    },
    {
      "children": [
        5,
        7,
        6,
        41
      ],
      "name": "Object_4"
    },
    {
      "children": [
        8
      ],
      "name": "_rootJoint"
    },
    {
      "matrix": [
        99.99999999999999,
        -4.935000768410923e-16,
        4.503564165529645e-18,
        0.0,
        4.935000771811008e-16,
        99.99999999999976,
        -7.549790126626378e-06,
        0.0,
        -4.5035269073095584e-18,
        7.549790126626378e-06,
        99.99999999999976,
        0.0,
        -1.7763568394002505e-15,
        -3.552713678800501e-15,
        0.0,
        1.0
      ],
      "name": "Object_6"
    },
    {
      "mesh": 0,
      "name": "Object_7",
      "skin": 0
    },
    {
      "children": [
        9,
        31,
        36
      ],
      "name": "mixamorig:Hips_01",
      "translation": [
        -0.013700485229492188,
        16.36956024169922,
        0.805864155292511
      ]
    },
    {
      "children": [
        10
      ],
      "name": "mixamorig:Spine_02",
      "rotation": [
        -0.08910613507032394,
        -0.0,
        0.0,
        0.9960221648216248
      ],
      "translation": [
        0.0,
        9.49587631225586,
        -1.7127480506896973
      ]
    },
    {
      "children": [
        11
      ],
      "name": "mixamorig:Spine1_03",
      "rotation": [
        -7.332266793724784e-09,
        -0.0,
        0.0,
        1.0
      ],
      "translation": [
        0.0,
        11.257285118103027,
        8.565986320263619e-08
      ]
    },
    {
      "children": [
        12,
        15,
        23
      ],
      "name": "mixamorig:Spine2_04",
      "rotation": [
        -2.7755575615628914e-17,
        -0.0,
        0.0,
        1.0
      ],
      "translation": [
        0.0,
        12.865471839904785,
        6.249865691643208e-08
      ]
    },
    {
      "children": [
        13
      ],
      "name": "mixamorig:Neck_05",
      "rotation": [
        0.08910614252090454,
        0.0,
        0.0,
        0.9960221648216248
      ],
      "translation": [
        0.0,
        14.473650932312012,
        1.6243907907664834e-07
      ]
    },
    {
      "children": [
        14
      ],
      "name": "mixamorig:Head_06",
      "translation": [
        0.0,
        9.172199249267578,
        3.6150059700012207
      ]
    },
    {
      "name": "mixamorig:HeadTop_End_07",
      "translation": [
        0.0,
        26.415878295898438,
        10.4111967086792
      ]
    },
    {
      "children": [
        16
      ],
      "name": "mixamorig:LeftShoulder_08",
      "rotation": [
        -0.5731093287467957,
        -0.3970335125923157,
        0.614336371421814,
        -0.3694602847099304
      ],
      "translation": [
        6.645090579986572,
        11.55514907836914,
        -0.4536782205104828
      ]
    },
    {
      "children": [
        17
      ],
      "name": "mixamorig:LeftArm_09",
      "rotation": [
        0.33143240213394165,
        0.09489057958126068,
        -0.033525142818689346,
        0.9380961656570435
      ],
      "translation": [
        7.497704501702174e-08,
        14.662028312683105,
        3.979261578024307e-07
      ]
    },
    {
      "children": [
        18
      ],
      "name": "mixamorig:LeftForeArm_010",
      "rotation": [
        0.09004675596952438,
        0.015900736674666405,
        0.17316435277462006,
        0.9806391000747681
      ],
      "translation": [
        -1.8655494926633764e-09,
        28.123783111572266,
        9.379719756452687e-08
      ]
    },
    {
      "children": [
        19
      ],
      "name": "mixamorig:LeftHand_011",
      "rotation": [
        0.11957859992980957,
        -0.0006651675212197006,
        -0.005522570107132196,
        0.9928091764450073
      ],
      "translation": [
        4.721037782928761e-07,
        27.57537078857422,
        4.2923255705318297e-07
      ]
    },
    {
      "children": [
        20
      ],
      "name": "mixamorig:LeftHandIndex1_012",
      "rotation": [
        0.22047153115272522,
        0.2683054506778717,
        -0.06322326511144638,
        0.935632050037384
      ],
      "translation": [
        -7.053745321172755e-08,
        8.615731239318848,
        -1.8309648908143572e-08
      ]
    },
    {
      "children": [
        21
      ],
      "name": "mixamorig:LeftHandIndex2_013",
      "rotation": [
        3.382710778154774e-17,
        2.7755575615628914e-17,
        1.1275702593849246e-17,
        1.0
      ],
      "translation": [
        -1.1297629498585593e-09,
        5.586802005767822,
        4.4063739323974005e-09
      ]
    },
    {
      "children": [
        22
      ],
      "name": "mixamorig:LeftHandIndex3_014",
      "rotation": [
        2.6020852139652106e-18,
        5.551115123125783e-17,
        -8.673617379884035e-19,
        1.0
      ],
      "translation": [
        -0.8881875872612,
        6.0527262687683105,
        -1.2071776390075684
      ]
    },
    {
      "name": "mixamorig:LeftHandIndex4_015",
      "rotation": [
        2.688821387764051e-17,
        -2.7755575615628914e-17,
        -1.5612511283791264e-17,
        1.0
      ],
      "translation": [
        -2.7934036254882813,
        5.389008522033691,
        0.3463031053543091
      ]
    },
    {
      "children": [
        24
      ],
      "name": "mixamorig:RightShoulder_016",
      "rotation": [
        0.5659211874008179,
        -0.4020634889602661,
        0.6195674538612366,
        0.36635279655456543
      ],
      "translation": [
        -6.645090579986572,
        11.580556869506836,
        -0.5945459604263306
      ]
    },
    {
      "children": [
        25
      ],
      "name": "mixamorig:RightArm_017",
      "rotation": [
        0.3327291011810303,
        -0.0668102353811264,
        0.023639682680368423,
        0.9403557181358337
      ],
      "translation": [
        -8.270423279554961e-08,
        14.662028312683105,
        3.96398263546871e-07
      ]
    },
    {
      "children": [
        26
      ],
      "name": "mixamorig:RightForeArm_018",
      "rotation": [
        0.10083243995904922,
        -0.014766882173717022,
        -0.14414967596530914,
        0.984294593334198
      ],
      "translation": [
        3.869893916430556e-08,
        28.135038375854492,
        -5.90093179653195e-07
      ]
    },
    {
      "children": [
        27
      ],
      "name": "mixamorig:RightHand_019",
      "rotation": [
        0.09957355260848999,
        -0.0005924119614064693,
        -0.005919852294027805,
        0.9950125217437744
      ],
      "translation": [
        -2.4496532091689005e-07,
        27.40155601501465,
        4.886832698502985e-07
      ]
    },
    {
      "children": [
        28
      ],
      "name": "mixamorig:RightHandIndex1_020",
      "rotation": [
        0.20061908662319183,
        -0.24612560868263245,
        0.05215127393603325,
        0.9468128681182861
      ],
      "translation": [
        -1.6319835083322687e-07,
        7.454793453216553,
        3.077294508102568e-08
      ]
    },
    {
      "children": [
        29
      ],
      "name": "mixamorig:RightHandIndex2_021",
      "rotation": [
        -1.3877787807814457e-17,
        2.7755575615628914e-17,
        -3.122502256758253e-17,
        1.0
      ],
      "translation": [
        -1.2621775624666043e-08,
        4.4577860832214355,
        -4.2916148856875225e-08
      ]
    },
    {
      "children": [
        30
      ],
      "name": "mixamorig:RightHandIndex3_022",
      "rotation": [
        2.7755575615628914e-17,
        -5.551115123125783e-17,
        -3.122502256758253e-17,
        1.0
      ],
      "translation": [
        -0.4090942144393921,
        7.614715099334717,
        -0.7235334515571594
      ]
    },
    {
      "name": "mixamorig:RightHandIndex4_023",
      "rotation": [
        3.469446951953614e-18,
        5.551115123125783e-17,
        -1.3877787807814457e-17,
        1.0
      ],
      "translation": [
        1.2612674236297607,
        5.737778663635254,
        1.6196258068084717
      ]
    },
    {
      "children": [
        32
      ],
      "name": "mixamorig:LeftUpLeg_024",
      "rotation": [
        -0.0004146513529121876,
        -0.007374119013547897,
        0.998395562171936,
        -0.05614040791988373
      ],
      "translation": [
        12.361895561218262,
        -5.279752731323242,
        1.990351676940918
      ]
    },
    {
      "children": [
        33
      ],
      "name": "mixamorig:LeftLeg_025",
      "rotation": [
        -0.10584142804145813,
        0.0016578619834035635,
        -0.015573727898299694,
        0.994259774684906
      ],
      "translation": [
        3.5501227557688253e-07,
        52.2095947265625,
        1.3930118392124768e-08
      ]
    },
    {
      "children": [
        34
      ],
      "name": "mixamorig:LeftFoot_026",
      "rotation": [
        0.5684083700180054,
        -0.02970225363969803,
        0.020540107041597366,
        0.8219536542892456
      ],
      "translation": [
        6.551586295699963e-08,
        46.73021697998047,
        6.136809105328211e-08
      ]
    },
    {
      "children": [
        35
      ],
      "name": "mixamorig:LeftToeBase_027",
      "rotation": [
        0.2850201427936554,
        -0.09425987303256989,
        0.028177354484796524,
        0.9534593224525452
      ],
      "translation": [
        -8.201345735869836e-08,
        22.705259323120117,
        -2.2287875367510424e-07
      ]
    },
    {
      "name": "mixamorig:LeftToe_End_028",
      "rotation": [
        2.501367168949997e-10,
        5.724587470723463e-17,
        -1.3877787807814457e-17,
        1.0
      ],
      "translation": [
        4.4942250809754114e-08,
        9.099892616271973,
        -2.9388900202320656e-09
      ]
    },
    {
      "children": [
        37
      ],
      "name": "mixamorig:RightUpLeg_00",
      "rotation": [
        1.4335655578179285e-05,
        -0.0002549162891227752,
        0.9984224438667297,
        0.05614800006151199
      ],
      "translation": [
        -12.361895561218262,
        -5.279752731323242,
        1.2191364765167236
      ]
    },
    {
      "children": [
        38
      ],
      "name": "mixamorig:RightLeg_029",
      "rotation": [
        -0.10920698195695877,
        -0.0016973516903817654,
        0.015447672456502914,
        0.993897557258606
      ],
      "translation": [
        -1.848379014290913e-07,
        52.2039794921875,
        1.9773409576373524e-09
      ]
    },
    {
      "children": [
        39
      ],
      "name": "mixamorig:RightFoot_030",
      "rotation": [
        0.5625580549240112,
        0.02981991320848465,
        -0.020309969782829285,
        0.8259701728820801
      ],
      "translation": [
        -9.591408556275383e-09,
        46.65150451660156,
        1.7348331482480717e-07
      ]
    },
    {
      "children": [
        40
      ],
      "name": "mixamorig:RightToeBase_031",
      "rotation": [
        0.2881477475166321,
        0.0916341170668602,
        -0.027712516486644745,
        0.9527885913848877
      ],
      "translation": [
        5.7101853911945e-08,
        22.477678298950195,
        -3.3759292250579165e-07
      ]
    },
    {
      "name": "mixamorig:RightToe_End_032",
      "rotation": [
        1.4479462073779814e-10,
        -2.168404344971009e-19,
        -2.7755575615628914e-17,
        1.0
      ],
      "translation": [
        2.1113716996978837e-08,
        9.133456230163574,
        9.134595302384696e-10
      ]
    },
    {
      "name": "temp",
      "rotation": [
        -3.774895063202166e-08,
        -0.0,
        0.0,
        1.0
      ],
      "scale": [
        100.0,
        100.0,
        100.0
      ]
    }
  ],
  "samplers": [
    {
      "magFilter": 9729,
      "minFilter": 9987,
      "wrapS": 10497,
      "wrapT": 10497
    }
  ],
  "scene": 0,
  "scenes": [
    {
      "name": "Sketchfab_Scene",
      "nodes": [
        0
      ]
    }
  ],
  "skins": [
    {
      "inverseBindMatrices": 4,
      "joints": [
        5,
        8,
        9,
        10,
        11,
        12,
        13,
        14,
        15,
        16,
        17,
        18,
        19,
        20,
        21,
        22,
        23,
        24,
        25,
        26,
        27,
        28,
        29,
        30,
        31,
        32,
        33,
        34,
        35,
        36,
        37,
        38,
        39,
        40
      ],
      "skeleton": 5
    }
  ],
  "textures": [
    {
      "sampler": 0,
      "source": 0
    }
  ]
}
